<?xml version="1.0" encoding="UTF-8" standalone="no"?>
<svg
   xmlns:dc="http://purl.org/dc/elements/1.1/"
   xmlns:cc="http://creativecommons.org/ns#"
   xmlns:rdf="http://www.w3.org/1999/02/22-rdf-syntax-ns#"
   xmlns:svg="http://www.w3.org/2000/svg"
   xmlns="http://www.w3.org/2000/svg"
   xmlns:sodipodi="http://sodipodi.sourceforge.net/DTD/sodipodi-0.dtd"
   xmlns:inkscape="http://www.inkscape.org/namespaces/inkscape"
   width="378.42737"
   version="1.1"
   height="449.92798"
   viewBox="0 0 302.74189 359.94239"
   id="svg2895"
   inkscape:version="0.47 r22583"
   sodipodi:docname="Empoli-Seite001.svg">
  <metadata
     id="metadata2970">
    <rdf:RDF>
      <cc:Work
         rdf:about="">
        <dc:format>image/svg+xml</dc:format>
        <dc:type
           rdf:resource="http://purl.org/dc/dcmitype/StillImage" />
        <dc:title></dc:title>
      </cc:Work>
    </rdf:RDF>
  </metadata>
  <sodipodi:namedview
     pagecolor="#ffffff"
     bordercolor="#666666"
     borderopacity="1"
     objecttolerance="10"
     gridtolerance="10"
     guidetolerance="10"
     inkscape:pageopacity="0"
     inkscape:pageshadow="2"
     inkscape:window-width="1152"
     inkscape:window-height="804"
     id="namedview2968"
     showgrid="false"
     inkscape:zoom="2.2010954"
     inkscape:cx="147.64187"
     inkscape:cy="263.65068"
     inkscape:window-x="-4"
     inkscape:window-y="-4"
     inkscape:window-maximized="1"
     inkscape:current-layer="svg2895" />
  <defs
     id="defs2897">
    <inkscape:perspective
       sodipodi:type="inkscape:persp3d"
       inkscape:vp_x="0 : 121.25 : 1"
       inkscape:vp_y="0 : 1000 : 0"
       inkscape:vp_z="242.5 : 121.25 : 1"
       inkscape:persp3d-origin="121.25 : 80.833333 : 1"
       id="perspective2972" />
    <clipPath
       id="Clip0">
      <path
         d="m 0,0 192.756,0 0,192.756 L 0,192.756 0,0 z"
         transform="translate(0.259766,0.676758)"
         id="path2900" />
    </clipPath>
  </defs>
  <g
     id="Hintergrund"
     transform="matrix(1.9338722,0,0,1.9239305,-35.514215,-6.7563052)">
    <g
       id="Gruppe1"
       clip-path="url(#Clip0)">
      <path
         style="fill:#005ca8;fill-rule:evenodd;stroke:none"
         d="M 0.2607,17.0508 0,17.1836 l 0.0234,0.292 c 1.3262,16.5635 5.3594,42.8213 17.0498,73.8496 9.8906,26.2508 28.4844,64.1228 60.8955,95.4668 l 0.3047,0.295 0.3047,-0.295 c 32.4119,-31.343 51.0049,-69.215 60.8959,-95.4668 11.69,-31.0283 15.725,-57.2861 17.05,-73.8496 l 0.023,-0.292 -0.261,-0.1328 C 134.792,6.05566 107.086,0 78.2734,0 49.4609,0 21.7558,6.05566 0.2607,17.0508 z"
         transform="translate(18.3643,3.51172)"
         id="path2906" />
      <path
         style="fill:#ffffff;fill-rule:evenodd;stroke:none"
         d="M 77.3496,0 C 105.91,0 133.363,5.97653 154.699,16.8252 153.356,33.3486 149.316,59.3857 137.73,90.1396 127.902,116.221 109.45,153.807 77.3496,184.978 45.248,153.806 26.7969,116.221 16.9697,90.1386 5.3828,59.3857 1.3447,33.3486 0,16.8252 21.3369,5.97653 48.789,0 77.3496,0 z"
         transform="translate(19.2881,4.38867)"
         id="path2908" />
      <path
         style="fill:#005ca8;fill-rule:evenodd;stroke:none"
         d="M 72.4287,173.965 C 45.3896,147.409 28.4853,115.65 16.7881,84.6035 12.0117,71.9287 8.3291,59.7334 5.5918,48.1729 24.1084,40.1924 47.3008,35.4316 72.4287,35.4316 c 25.1283,0 48.3203,4.7608 66.8373,12.7413 -2.738,11.5605 -6.42,23.7558 -11.196,36.4306 C 116.372,115.65 99.468,147.409 72.4287,173.965 z M 4.5039,43.3857 C 2.3056,33.2803 0.8379,23.6914 0,14.7285 19.499,5.5566 44.8164,0 72.4287,0 100.041,0 125.357,5.5566 144.856,14.7285 144.02,23.6914 142.552,33.2803 140.353,43.3857 121.328,35.2676 97.823,30.457 72.4287,30.457 c -25.3945,0 -48.9004,4.8106 -67.9248,12.9287 z"
         transform="translate(24.209,8.9248)"
         id="path2910" />
      <path
         style="fill:#ffffff;fill-rule:nonzero;stroke:none"
         d="m 0,0 76.369,0 0,1.4033 L 0,1.4033 0,0 z"
         transform="translate(58.666,91.8418)"
         id="path2912" />
      <path
         style="fill:#ffffff;fill-rule:nonzero;stroke:none"
         d="m 0,0 79.1296,0 0,1.4033 L 0,1.4033 0,0 z"
         transform="translate(57.1514,93.9805)"
         id="path2914" />
      <path
         style="fill:#ffffff;fill-rule:nonzero;stroke:none"
         d="m 0,0 79.0046,0 0,1.403 L 0,1.403 0,0 z"
         transform="translate(57.1514,101.822)"
         id="path2916" />
      <path
         style="fill:#ffffff;fill-rule:evenodd;stroke:none"
         d="m 2.0352,16.233 0,-12.152 -2.0352,0 0,-1.926 0.0908,0 c 0.71,0 1.3057,-0.158 1.7852,-0.478 0.4844,-0.32 0.792,-0.765 0.9385,-1.331 l 2.8945,0 0,15.887 -3.6738,0 z m 11.5381,-9.07 0,-3.986 c 0,-0.28 -0.0469,-0.478 -0.1456,-0.599 C 13.333,2.461 13.1748,2.401 12.957,2.401 c -0.2275,0 -0.3916,0.057 -0.4931,0.177 -0.1006,0.119 -0.1494,0.319 -0.1494,0.599 l 0,3.986 c 0,0.279 0.0488,0.48 0.1494,0.599 0.1006,0.12 0.2656,0.176 0.4931,0.176 0.2178,0 0.376,-0.058 0.4707,-0.176 0.0987,-0.121 0.1456,-0.32 0.1456,-0.599 z m -1.2588,6.25 c 0,0.273 0.0498,0.473 0.1494,0.592 0.1015,0.123 0.2656,0.183 0.4931,0.183 0.2266,0 0.3877,-0.056 0.4795,-0.175 0.0918,-0.12 0.1368,-0.321 0.1368,-0.6 l 0,-3.352 c -0.3086,0.202 -0.625,0.347 -0.9424,0.444 -0.3174,0.098 -0.6592,0.147 -1.0274,0.147 -0.956,0 -1.6875,-0.235 -2.1972,-0.71 C 8.8965,9.468 8.6397,8.784 8.6397,7.895 l 0,-3.791 c 0,-1.486 0.3339,-2.541 0.998,-3.166 C 10.3008,0.313 11.4111,0 12.957,0 c 1.5372,0 2.6397,0.309 3.3018,0.931 0.6611,0.62 0.9893,1.68 0.9893,3.173 l 0,8.382 c 0,1.486 -0.334,2.541 -0.9981,3.166 -0.6641,0.625 -1.7646,0.938 -3.293,0.938 -1.3584,0 -2.416,-0.272 -3.1738,-0.813 C 9.0205,15.233 8.6397,14.483 8.6397,13.52 l 0,-2.047 3.6748,0 0,1.94 z M 23.6459,3.037 c 0,-0.271 -0.052,-0.474 -0.151,-0.599 -0.097,-0.125 -0.252,-0.187 -0.462,-0.187 -0.226,0 -0.381,0.059 -0.475,0.173 -0.09,0.113 -0.137,0.319 -0.137,0.613 l 0,2.898 -3.6533,0 0,-1.831 c 0,-1.494 0.334,-2.552 0.998,-3.173 C 20.4297,0.31 21.5339,0 23.0849,0 c 1.443,0 2.526,0.306 3.242,0.912 0.715,0.607 1.071,1.523 1.071,2.751 0,1.437 -0.887,3.313 -2.66,5.633 -0.342,0.459 -0.604,0.809 -0.779,1.044 -0.626,0.848 -1.05,1.515 -1.277,2 -0.222,0.485 -0.338,0.926 -0.338,1.331 0,0.037 0.005,0.081 0.013,0.14 0.008,0.055 0.013,0.099 0.013,0.128 l 5.053,0 0,2.294 -8.6817,0 0,-2.628 c 0,-0.648 0.1338,-1.288 0.4033,-1.927 0.2657,-0.64 0.8096,-1.508 1.6319,-2.596 0.1845,-0.246 0.4455,-0.592 0.7885,-1.037 1.387,-1.816 2.081,-3.073 2.081,-3.769 l 0,-1.239 z m 4.912,1.067 c 0,-1.478 0.335,-2.534 1.003,-3.163 C 30.2329,0.313 31.3379,0 32.8749,0 c 1.547,0 2.655,0.31 3.319,0.931 0.665,0.621 0.998,1.679 0.998,3.173 l 0,8.382 c 0,1.486 -0.333,2.541 -0.998,3.166 -0.664,0.625 -1.772,0.938 -3.319,0.938 -1.546,0 -2.655,-0.313 -3.319,-0.938 -0.663,-0.625 -0.998,-1.68 -0.998,-3.166 l 0,-8.382 z m 3.675,-1.067 0,10.376 c 0,0.273 0.051,0.471 0.15,0.592 0.102,0.121 0.266,0.183 0.492,0.183 0.227,0 0.386,-0.057 0.48,-0.175 0.09,-0.121 0.137,-0.321 0.137,-0.6 l 0,-10.376 c 0,-0.286 -0.047,-0.485 -0.137,-0.599 -0.094,-0.11 -0.253,-0.166 -0.48,-0.166 -0.219,0 -0.381,0.063 -0.483,0.188 -0.108,0.125 -0.159,0.32 -0.159,0.577 z"
         transform="translate(78.7871,140.291)"
         id="path2918" />
      <path
         style="fill:#ffffff;fill-rule:nonzero;stroke:none"
         d="M 48.7108,1.4922 0,1.4922 0,0 l 48.7108,0 0,1.4922 z"
         transform="translate(72.2822,64.0361)"
         id="path2920" />
      <path
         style="fill:#161413;fill-rule:nonzero;stroke:none"
         d="m 3.156,0.0938 c -0.843,0 -1.609,0.3437 -2.162,0.8984 -0.555,0.5537 -0.898,1.3193 -0.898,2.1621 0,0.8418 0.344,1.6075 0.898,2.1615 0.554,0.554 1.319,0.897 2.162,0.897 0.841,0 1.607,-0.343 2.161,-0.897 C 5.871,4.7618 6.215,3.9961 6.215,3.1543 6.215,2.3115 5.871,1.5459 5.317,0.9922 4.763,0.4375 3.998,0.0938 3.156,0.0938 z M 3.156,0 c 0.868,0 1.657,0.3535 2.228,0.9258 0.571,0.5703 0.926,1.3594 0.926,2.2285 0,0.8682 -0.355,1.6575 -0.926,2.2285 -0.571,0.571 -1.36,0.926 -2.228,0.926 -0.87,0 -1.658,-0.355 -2.229,-0.926 C 0.356,4.8118 0,4.0225 0,3.1543 0,2.2852 0.356,1.4961 0.927,0.9248 1.498,0.3535 2.286,0 3.156,0 z"
         transform="translate(126.152,95.4492)"
         id="path2922" />
      <path
         style="fill:#161413;fill-rule:nonzero;stroke:none"
         d="m 3.154,0.0938 c -0.843,0 -1.608,0.3437 -2.162,0.8984 -0.554,0.5537 -0.898,1.3193 -0.898,2.1621 0,0.8418 0.344,1.6075 0.898,2.1615 0.554,0.554 1.319,0.897 2.162,0.897 0.843,0 1.607,-0.343 2.162,-0.897 C 5.87,4.7618 6.214,3.9961 6.214,3.1543 6.214,2.3115 5.87,1.5459 5.316,0.9922 4.761,0.4375 3.997,0.0938 3.154,0.0938 z M 3.154,0 c 0.869,0 1.657,0.3535 2.228,0.9248 0.573,0.5713 0.926,1.3604 0.926,2.2295 0,0.8682 -0.353,1.6575 -0.926,2.2285 -0.571,0.571 -1.36,0.926 -2.228,0.926 -0.868,0 -1.657,-0.355 -2.229,-0.926 C 0.354,4.8118 0,4.0225 0,3.1543 0,2.2852 0.354,1.4961 0.925,0.9248 1.497,0.3535 2.286,0 3.154,0 z"
         transform="translate(116.559,95.4492)"
         id="path2924" />
      <path
         style="fill:#ffffff;fill-rule:evenodd;stroke:none"
         d="m 33.7119,0 c 3.2842,0 5.9703,2.5966 5.9703,5.7706 l 0,18.675 -11.941,0 0,-18.675 C 27.7412,2.6299 30.4033,0 33.7119,0 z M 4.6777,11.4306 c 2.5733,0 4.6787,2.035 4.6787,4.522 l 0,8.493 -9.3564,0 0,-8.493 c 0,-2.461 2.0849,-4.522 4.6777,-4.522 z m 58.0675,0 c -2.572,0 -4.678,2.035 -4.678,4.522 l 0,8.493 9.357,0 0,-8.493 c 0,-2.461 -2.085,-4.522 -4.679,-4.522 z m -44.9161,0 c 2.5722,0 4.6777,2.035 4.6777,4.522 l 0,8.493 -9.3564,0 0,-8.493 c 0,-2.461 2.0849,-4.522 4.6787,-4.522 z m 31.7661,0 c 2.573,0 4.679,2.035 4.679,4.522 l 0,8.493 -9.357,0 0,-8.493 c 0,-2.461 2.086,-4.522 4.678,-4.522 z"
         transform="translate(62.9258,95.2764)"
         id="path2926" />
      <path
         style="fill:#ffffff;fill-rule:evenodd;stroke:none"
         d="m 3.1065,0 c 1.7119,0 3.1074,1.3955 3.1074,3.1074 0,1.7105 -1.3955,3.1065 -3.1074,3.1065 C 1.3955,6.2139 0,4.8179 0,3.1074 0,1.3955 1.3955,0 3.1065,0 z m 0,1.5537 c -0.8555,0 -1.5537,0.6973 -1.5537,1.5537 0,0.8555 0.6982,1.5525 1.5537,1.5525 0.8554,0 1.5537,-0.697 1.5537,-1.5525 0,-0.8564 -0.6983,-1.5537 -1.5537,-1.5537 z"
         transform="translate(60.8613,95.4961)"
         id="path2928" />
      <path
         style="fill:#ffffff;fill-rule:evenodd;stroke:none"
         d="m 3.1074,0 c 1.7109,0 3.1074,1.3955 3.1074,3.1074 0,1.7105 -1.3965,3.1065 -3.1074,3.1065 C 1.3965,6.2139 0,4.8179 0,3.1074 0,1.3955 1.3965,0 3.1074,0 z m 0,1.5537 c -0.8555,0 -1.5537,0.6973 -1.5537,1.5537 0,0.8555 0.6982,1.5525 1.5537,1.5525 0.8555,0 1.5537,-0.697 1.5537,-1.5525 0,-0.8564 -0.6982,-1.5537 -1.5537,-1.5537 z"
         transform="translate(70.4551,95.4961)"
         id="path2930" />
      <path
         style="fill:#ffffff;fill-rule:evenodd;stroke:none"
         d="m 3.1074,0 c 1.711,0 3.1065,1.3955 3.1065,3.1074 0,1.7105 -1.3955,3.1065 -3.1065,3.1065 C 1.3955,6.2139 0,4.8179 0,3.1074 0,1.3955 1.3955,0 3.1074,0 z m 0,1.5537 c -0.8554,0 -1.5537,0.6973 -1.5537,1.5537 0,0.8555 0.6983,1.5525 1.5537,1.5525 0.8555,0 1.5537,-0.697 1.5537,-1.5525 0,-0.8564 -0.6982,-1.5537 -1.5537,-1.5537 z"
         transform="translate(80.0498,95.4961)"
         id="path2932" />
      <path
         style="fill:#ffffff;fill-rule:evenodd;stroke:none"
         d="M 3.108,0 C 4.819,0 6.215,1.3955 6.215,3.1074 6.215,4.8179 4.819,6.2139 3.108,6.2139 1.396,6.2139 0,4.8179 0,3.1074 0,1.3955 1.396,0 3.108,0 z m 0,1.5537 c -0.857,0 -1.554,0.6973 -1.554,1.5537 0,0.8555 0.697,1.5525 1.554,1.5525 0.855,0 1.552,-0.697 1.552,-1.5525 C 4.66,2.251 3.963,1.5537 3.108,1.5537 z"
         transform="translate(126.2,95.4961)"
         id="path2934" />
      <path
         style="fill:#ffffff;fill-rule:evenodd;stroke:none"
         d="m 1.5537,0 c 0.8555,0 1.5537,0.6973 1.5537,1.5528 0,0.8564 -0.6982,1.5537 -1.5537,1.5537 C 0.6982,3.1065 0,2.4092 0,1.5528 0,0.6973 0.6982,0 1.5537,0 z"
         transform="translate(95.084,86.0566)"
         id="path2936" />
      <path
         style="fill:#ffffff;fill-rule:evenodd;stroke:none"
         d="M 4.9717,0 C 7.71,0 9.943,2.2324 9.943,4.9707 9.943,7.709 7.71,9.9424 4.9717,9.9424 2.2334,9.9424 0,7.709 0,4.9707 0,2.2324 2.2334,0 4.9717,0 z m 0,1.8642 c -1.7109,0 -3.1074,1.3955 -3.1074,3.1065 0,1.7119 1.3965,3.1074 3.1074,3.1074 1.7109,0 3.1064,-1.3955 3.1064,-3.1074 0,-1.711 -1.3955,-3.1065 -3.1064,-3.1065 z"
         transform="translate(91.666,82.6387)"
         id="path2938" />
      <path
         style="fill:#ffffff;fill-rule:evenodd;stroke:none"
         d="m 3.1074,0 c 1.7109,0 3.1064,1.3955 3.1064,3.1065 0,1.7119 -1.3955,3.1074 -3.1064,3.1074 C 1.3965,6.2139 0,4.8184 0,3.1065 0,1.3955 1.3965,0 3.1074,0 z m 0,1.5528 c -0.8555,0 -1.5537,0.6982 -1.5537,1.5537 0,0.8555 0.6982,1.5537 1.5537,1.5537 0.8555,0 1.5537,-0.6982 1.5537,-1.5537 0,-0.8555 -0.6982,-1.5537 -1.5537,-1.5537 z"
         transform="translate(93.5303,58.0234)"
         id="path2940" />
      <path
         style="fill:#ffffff;fill-rule:nonzero;stroke:none"
         d="M 0,11.2217 20.4287,0.0801 20.5752,0 20.7217,0.0801 41.1505,11.2217 40.8585,11.7588 20.5752,0.6973 0.292,11.7588 0,11.2217 z"
         transform="translate(76.0625,53.292)"
         id="path2942" />
      <path
         style="fill:#ffffff;fill-rule:evenodd;stroke:none"
         d="m 35.8832,0 c 2.221,0 4.038,1.8105 4.038,4.0234 l 0,7.2168 -8.077,0 0,-7.2168 C 31.8442,1.833 33.6442,0 35.8832,0 z M 4.039,0 c 2.2217,0 4.0391,1.8105 4.0391,4.0234 l 0,7.2168 -8.0781,0 0,-7.2168 C 0,1.833 1.8007,0 4.039,0 z m 10.6055,0 c 2.2226,0 4.04,1.8105 4.04,4.0234 l 0,7.2168 -8.0791,0 0,-7.2168 C 10.6054,1.833 12.4062,0 14.6445,0 z m 10.6317,0 c 2.222,0 4.04,1.8105 4.04,4.0234 l 0,7.2168 -8.0789,0 0,-7.2168 C 21.2373,1.833 23.039,0 25.2762,0 z"
         transform="translate(76.6768,68.8262)"
         id="path2944" />
      <path
         style="fill:#ffffff;fill-rule:nonzero;stroke:none"
         d="M 48.7108,1.4033 0,1.4033 0,0 l 48.7108,0 0,1.4033 z"
         transform="translate(72.2822,81.4619)"
         id="path2946" />
      <path
         style="fill:#ffffff;fill-rule:nonzero;stroke:none"
         d="m 78.9727,68.3246 0,-25.0785 -14.83,-11.1387 -0.301,-0.2266 0,-17.3095 -23.6093,-12.878 -23.6094,12.878 0,17.3095 -0.3008,0.2266 -14.83,11.1387 0,25.0785 77.4805,0 z m 1.493,1.493 -80.4657,0 0,-27.3098 0.2998,-0.2256 14.8301,-11.1387 0,-17.4521 0.3906,-0.2139 L 39.8769,0.1943 40.2324,0 l 0.3555,0.1943 24.3558,13.2832 0.39,0.2139 0,17.4521 14.831,11.1387 0.301,0.2256 0,27.3098 z"
         transform="translate(56.4053,50.6514)"
         id="path2948" />
      <path
         style="fill:#ffffff;fill-rule:nonzero;stroke:none"
         d="M 48.7108,1.4034 0,1.4034 0,0 l 48.7108,0 0,1.4034 z"
         transform="translate(72.2822,79.3652)"
         id="path2950" />
      <path
         style="fill:#ffffff;fill-rule:evenodd;stroke:none"
         d="m 49.5132,3.8204 c -0.841,-0.003 -1.018,0.3564 -1.01,1.2343 l 0.002,0.9102 0.732,0.0068 c 0.39,0.0039 0.735,0.0303 0.9,-0.3301 0.384,-0.8486 2.5,-1.2031 4.171,-1.5507 0.95,-0.1973 0.506,-0.2608 -0.012,-0.2618 L 49.5132,3.8204 z M 47.5782,0.002 C 46.7362,0 46.5592,0.3575 46.5672,1.2364 l 0.002,0.9101 0.733,0.0069 c 0.389,0.0029 0.736,0.0302 0.9,-0.3301 0.384,-0.8486 2.5,-1.2031 4.171,-1.5508 0.949,-0.1973 0.506,-0.2607 -0.012,-0.2617 L 47.5782,0.002 z m -6.723,5.9648 c 0.935,-0.4199 2.939,-0.914 2.934,-2.3105 -0.007,-1.668 -3.234,-2.3125 -4.995,-2.3897 1.864,-0.9111 5.064,-0.8086 6.742,0.4795 1.394,1.0703 1.558,2.8741 -0.222,3.7608 -1.137,0.5683 -2.845,0.7763 -4.459,0.4599 z m -26.4538,0 C 13.4678,5.5469 11.4639,5.0528 11.4687,3.6563 11.4756,1.9883 14.7012,1.3438 16.4639,1.2666 14.5986,0.3555 11.3994,0.458 9.7217,1.7461 8.3271,2.8164 8.165,4.6202 9.9433,5.5069 11.081,6.0752 12.7891,6.2832 14.4014,5.9668 z M 5.7432,3.8204 C 6.5859,3.8174 6.7627,4.1768 6.7549,5.0547 L 6.7529,5.9649 6.0205,5.9717 C 5.6308,5.9756 5.2842,6.002 5.1211,5.6416 4.7363,4.793 2.6201,4.4385 0.9492,4.0909 0,3.8936 0.4433,3.8301 0.9619,3.8291 L 5.7432,3.8204 z M 7.6787,0.002 C 8.5205,0 8.6982,0.3575 8.6894,1.2364 L 8.6885,2.1465 7.956,2.1534 C 7.5654,2.1563 7.2197,2.1836 7.0566,1.8233 6.6709,0.9747 4.5557,0.6202 2.8848,0.2725 1.9355,0.0752 2.3789,0.0118 2.8975,0.0108 L 7.6787,0.002 z"
         transform="translate(69.0088,84.8691)"
         id="path2952" />
      <path
         style="fill:#ffffff;fill-rule:nonzero;stroke:none"
         d="m 0,0 78.9726,0 0,1.492 L 0,1.492 0,0 z"
         transform="translate(57.1514,130.257)"
         id="path2954" />
      <path
         style="fill:#ffffff;fill-rule:nonzero;stroke:none"
         d="M 4.7012,1.411 C 3.9815,1.653 3.3467,2.046 2.7959,2.588 2.2315,3.145 1.752,3.865 1.3584,4.745 L 0,4.138 C 0.4707,3.087 1.0557,2.215 1.753,1.527 2.4649,0.825 3.2901,0.315 4.2285,0 l 0.4727,1.411 z"
         transform="translate(52.6865,119.017)"
         id="path2956" />
      <path
         style="fill:#ffffff;fill-rule:nonzero;stroke:none"
         d="m 1.3877,0 0.4892,1.226 84.1782,0 0.489,-1.226 1.388,0.548 -0.678,1.699 -0.19,0.472 -86.1979,0 L 0.6777,2.247 0,0.548 1.3877,0 z"
         transform="translate(52.6719,123.185)"
         id="path2958" />
      <path
         style="fill:#ffffff;fill-rule:nonzero;stroke:none"
         d="M 3.341,4.745 C 2.948,3.865 2.468,3.146 1.904,2.588 1.354,2.046 0.718,1.653 0,1.411 L 0.471,0 C 1.41,0.315 2.236,0.825 2.948,1.528 3.645,2.216 4.229,3.087 4.7,4.138 L 3.341,4.745 z"
         transform="translate(135.889,119.017)"
         id="path2960" />
      <path
         style="fill:#ffffff;fill-rule:evenodd;stroke:none"
         d="m 111.704,23.6318 3.233,0.9268 -0.996,3.4707 -3.232,-0.9268 0.995,-3.4707 z m 0.237,-10.831 -0.196,0.7314 -4.026,-1.0791 0.109,-0.4111 c 0.322,-1.2041 0.438,-2.0225 0.336,-2.4473 -0.101,-0.4258 -0.41,-0.706 -0.918,-0.8427 -0.518,-0.1377 -0.931,-0.0518 -1.23,0.2666 -0.3,0.3183 -0.61,1.0839 -0.933,2.2871 l -2.095,7.8203 c -0.319,1.1904 -0.427,2.001 -0.32,2.4424 0.106,0.4414 0.419,0.7314 0.94,0.8711 0.499,0.1337 0.897,0.0478 1.189,-0.2579 0.292,-0.3066 0.574,-0.9677 0.847,-1.9873 l 0.285,-1.0634 4.027,1.0791 -0.278,1.0371 c -0.555,2.0693 -1.333,3.4092 -2.334,4.0136 -1.003,0.6084 -2.482,0.6475 -4.44,0.1231 -2.111,-0.5654 -3.4509,-1.4356 -4.0099,-2.6084 -0.567,-1.169 -0.503,-3.0469 0.189,-5.6289 l 1.6309,-6.0879 c 0.687,-2.5684 1.568,-4.2139 2.647,-4.9414 1.08,-0.7285 2.679,-0.8076 4.8,-0.2383 1.939,0.5195 3.191,1.291 3.755,2.3184 0.564,1.0244 0.572,2.5595 0.025,4.6035 z m -19.5339,6.4873 3.307,0.6133 -0.658,3.5498 -3.307,-0.6133 0.658,-3.5498 z m -5.477,-17.086 8.616,1.3653 -0.516,3.2597 -4.37,-0.6914 -0.721,4.5508 4.103,0.6494 -0.502,3.1748 -4.105,-0.6503 -1.322,8.3496 -4.246,-0.6719 3.063,-19.336 z m -14.282,-1.4208 4.304,0.3007 -1.365,19.5284 -4.304,-0.3008 1.365,-19.5283 z m -11.652,-0.4766 4.297,0.1123 -0.433,16.3076 4.944,0.1289 -0.078,3.2627 L 60.4834,19.874 60.9961,0.3047 z M 12.254,5.0176 18.2579,3.959 22.3399,16.3027 22.42,3.2256 28.3379,2.1826 31.7364,21.4609 27.8389,22.1484 25.3106,7.8057 25.3584,22.5859 21.5713,23.2539 16.8282,9.3008 19.3575,23.6436 15.6534,24.2969 12.254,5.0176 z M 0,8.21 8.2637,5.9961 9.1465,9.29 l -4.4638,1.1973 1.0908,4.0723 4.1758,-1.1182 0.9111,3.4004 -4.1758,1.1191 1.292,4.8174 4.8184,-1.29 0.8896,3.3222 L 5.0674,27.1201 0,8.21 z m 58.4092,-1.2832 0,6.3066 c 0,2.6543 -0.4248,4.4805 -1.2783,5.4727 -0.8545,0.996 -2.3701,1.4951 -4.5459,1.4951 -2.1855,0 -3.7051,-0.4942 -4.5498,-1.4815 -0.8496,-0.9834 -1.2744,-2.8134 -1.2744,-5.4863 l 0,-6.3066 c 0,-2.6455 0.4248,-4.4629 1.2744,-5.4454 C 48.8799,0.4932 50.3995,0 52.585,0 c 2.1865,0 3.7061,0.4932 4.5498,1.4814 0.8496,0.9825 1.2744,2.7999 1.2744,5.4454 z M 54.1241,6.0391 c 0,-1.2647 -0.1114,-2.084 -0.333,-2.46 -0.2217,-0.376 -0.6221,-0.5664 -1.2061,-0.5664 -0.5742,0 -0.9746,0.1943 -1.2012,0.584 -0.2275,0.3896 -0.3379,1.2051 -0.3379,2.4424 l 0,8.0957 c 0,1.2548 0.1104,2.0703 0.3331,2.4463 0.2216,0.3759 0.622,0.5664 1.206,0.5664 0.5742,0 0.9746,-0.1905 1.2022,-0.5752 0.2255,-0.3848 0.3369,-1.2002 0.3369,-2.4375 l 0,-8.0957 z M 32.2012,1.6475 36.8506,1.2402 c 2.2891,-0.2002 3.9385,0.0664 4.9473,0.795 1.0078,0.7275 1.5986,2.0527 1.7676,3.9746 l 0.1113,1.2685 c 0.1592,1.8242 -0.1728,3.2051 -0.9941,4.1436 -0.8213,0.9385 -2.1807,1.4912 -4.0743,1.6572 l -1.3525,0.1182 0.665,7.6006 -4.0136,0.3515 -1.7061,-19.5019 z m 4.2676,2.5595 0.5342,6.1065 0.5508,-0.0479 C 38.3223,10.1982 38.8457,9.9707 39.1163,9.583 39.3877,9.1953 39.4844,8.5322 39.4034,7.5977 L 39.3018,6.4375 C 39.2207,5.5127 39.0108,4.8857 38.6768,4.5547 38.3428,4.2256 37.7881,4.0918 37.0196,4.1592 L 36.4688,4.207 z"
         transform="translate(39.1689,15.375)"
         id="path2962" />
      <path
         style="fill:#ffffff;fill-rule:evenodd;stroke:none"
         d="M 3.107,0 C 4.819,0 6.214,1.3955 6.214,3.1074 6.214,4.8179 4.819,6.2139 3.107,6.2139 1.396,6.2139 0,4.8179 0,3.1074 0,1.3955 1.396,0 3.107,0 z M 3.101,1.5537 c -0.855,0 -1.554,0.6973 -1.554,1.5537 0,0.8555 0.699,1.5525 1.554,1.5525 0.856,0 1.554,-0.697 1.554,-1.5525 0,-0.8564 -0.698,-1.5537 -1.554,-1.5537 z"
         transform="translate(116.606,95.4961)"
         id="path2964" />
      <path
         style="fill:#ffffff;fill-rule:evenodd;stroke:none"
         d="M 3.106,0 C 4.817,0 6.214,1.3955 6.214,3.1074 6.214,4.8179 4.817,6.2139 3.106,6.2139 1.395,6.2139 0,4.8179 0,3.1074 0,1.3955 1.395,0 3.106,0 z m 0,1.6162 c -0.821,0 -1.49,0.669 -1.49,1.4912 0,0.8213 0.669,1.4915 1.49,1.4915 0.822,0 1.492,-0.6702 1.492,-1.4915 0,-0.8222 -0.67,-1.4912 -1.492,-1.4912 z"
         transform="translate(107.012,95.4961)"
         id="path2966" />
    </g>
  </g>
</svg>
