<?xml version="1.0" encoding="UTF-8" standalone="no"?>
<svg
   xmlns:dc="http://purl.org/dc/elements/1.1/"
   xmlns:cc="http://creativecommons.org/ns#"
   xmlns:rdf="http://www.w3.org/1999/02/22-rdf-syntax-ns#"
   xmlns:svg="http://www.w3.org/2000/svg"
   xmlns="http://www.w3.org/2000/svg"
   xmlns:sodipodi="http://sodipodi.sourceforge.net/DTD/sodipodi-0.dtd"
   xmlns:inkscape="http://www.inkscape.org/namespaces/inkscape"
   width="789.29346"
   version="1.1"
   height="1114.2672"
   viewBox="0 0 631.43477 891.41377"
   id="svg2899"
   inkscape:version="0.47 r22583"
   sodipodi:docname="US_Citt___di_Palermo-Seite001.svg">
  <metadata
     id="metadata2978">
    <rdf:RDF>
      <cc:Work
         rdf:about="">
        <dc:format>image/svg+xml</dc:format>
        <dc:type
           rdf:resource="http://purl.org/dc/dcmitype/StillImage" />
        <dc:title>us_citta_di_palermo.ai</dc:title>
      </cc:Work>
    </rdf:RDF>
  </metadata>
  <sodipodi:namedview
     pagecolor="#ffffff"
     bordercolor="#666666"
     borderopacity="1"
     objecttolerance="10"
     gridtolerance="10"
     guidetolerance="10"
     inkscape:pageopacity="0"
     inkscape:pageshadow="2"
     inkscape:window-width="1152"
     inkscape:window-height="804"
     id="namedview2976"
     showgrid="false"
     inkscape:zoom="0.75310847"
     inkscape:cx="392.12641"
     inkscape:cy="175.64831"
     inkscape:window-x="-4"
     inkscape:window-y="-4"
     inkscape:window-maximized="1"
     inkscape:current-layer="svg2899" />
  <title
     id="title2901">us_citta_di_palermo.ai</title>
  <defs
     id="defs2903">
    <inkscape:perspective
       sodipodi:type="inkscape:persp3d"
       inkscape:vp_x="0 : 354.375 : 1"
       inkscape:vp_y="0 : 1000 : 0"
       inkscape:vp_z="497.5 : 354.375 : 1"
       inkscape:persp3d-origin="248.75 : 236.25 : 1"
       id="perspective2980" />
  </defs>
  <g
     id="Hintergrund"
     transform="matrix(1.5875697,0,0,1.5739322,-0.03712491,-0.00157802)">
    <path
       style="fill:#000000;fill-rule:nonzero;stroke:none"
       d="m 0.0108,0 0,367.558 c 0,0.068 -0.0025,0.221 -0.0025,0.464 C 0,384.915 3.3785,400.944 9.1031,415.639 19.1592,441.403 36.0694,463.09 55.0977,481.397 83.711,508.825 117.46,529 144.24,542.726 c 26.778,13.681 46.618,20.773 47.256,21.004 l 7.38,2.631 7.381,-2.631 c 0.992,-0.395 46.492,-16.536 93.337,-48.003 23.416,-15.79 47.288,-35.427 65.983,-59.782 9.328,-12.181 17.347,-25.592 23.073,-40.304 5.724,-14.695 9.103,-30.724 9.095,-47.619 0,-0.096 0,-0.166 0,-0.212 L 397.745,0 0.0108,0 z"
       transform="translate(0.0151,0.001)"
       id="path2906" />
    <path
       style="fill:#ffffff;fill-rule:nonzero;stroke:none"
       d="m 0.0152,0 0,16.4785 0,265.4865 c 0,0.082 -0.0025,0.23 -0.0025,0.44 -0.0127,32.449 12.9224,60.993 31.0371,84.583 27.2813,35.471 66.2696,61.357 98.4672,79.028 32.216,17.597 57.787,26.722 58.337,26.926 l 5.535,1.974 5.536,-1.974 c 0.743,-0.296 45.925,-16.344 92.112,-47.385 23.092,-15.566 46.525,-34.888 64.691,-58.567 18.116,-23.592 31.05,-52.136 31.036,-84.583 0,-0.125 0,-0.206 0,-0.24 L 386.764,0 0.0152,0 z"
       transform="translate(5.5029,85.6162)"
       id="path2908" />
    <path
       style="fill:#f6bcc9;fill-rule:nonzero;stroke:none"
       d="m 0.0108,0 0,10.9858 0,265.5502 c 0,0.053 0,0.193 0,0.377 -0.0108,30.959 12.2993,58.296 29.9023,81.243 26.48,34.472 64.9111,60.101 96.7399,77.547 31.844,17.395 57.183,26.436 57.551,26.571 l 3.689,1.315 3.689,-1.315 c 0.497,-0.196 45.359,-16.153 90.893,-46.768 22.766,-15.338 45.756,-34.345 63.396,-57.35 17.606,-22.947 29.913,-50.284 29.903,-81.243 0,-0.094 0,-0.162 0,-0.205 l 0,-0.09 L 375.774,0 0.0108,0 z"
       transform="translate(10.999,91.1099)"
       id="path2910" />
    <path
       style="fill:#ffffff;fill-rule:nonzero;stroke:none"
       d="m 0.0063,0 0,5.4926 0,265.5494 c 0,0.091 -0.0019,0.224 -0.0019,0.379 -0.0044,29.47 11.6777,55.602 28.7729,77.903 25.6773,33.477 63.5493,58.849 95.0117,76.067 31.469,17.193 56.578,26.151 56.762,26.217 l 1.843,0.659 1.847,-0.659 c 0.248,-0.098 44.788,-15.962 89.669,-46.15 22.438,-15.109 44.989,-33.805 62.102,-56.134 17.095,-22.298 28.777,-48.433 28.77,-77.903 0,-0.184 0,-0.284 0,-0.29 L 364.782,0 0.0063,0 z"
       transform="translate(16.4971,96.6016)"
       id="path2912" />
    <path
       style="fill:#000000;fill-rule:nonzero;stroke:none"
       d="m 164.098,440.941 c 177.297,-63.231 0,0 176.896,-175.392 L 340.994,0 0,317.153 c 0,0 40.6363,79.754 164.098,123.788 z"
       transform="translate(34.7949,102.096)"
       id="path2914" />
    <path
       style="fill:#f6bcc9;fill-rule:nonzero;stroke:none"
       d="m 0.0659,0 0,265.55 C 0,284.114 4.8047,301.336 12.8642,317.154 L 353.858,0.001 353.858,0 0.0659,0 z"
       transform="translate(21.9307,102.095)"
       id="path2916" />
    <path
       style="fill:#c5ab37;fill-rule:nonzero;stroke:none"
       d="m 136.788,428.464 86.726,-90.057 c 5.515,-8.19 13.789,-10.373 24.444,-8.19 l -4.742,6.007 c 12.619,-2.738 21.289,-3.824 26.021,-2.184 l -4.732,4.91 c 3.948,-1.096 6.706,-1.096 10.644,-1.64 9.068,-0.543 14.197,3.824 22.868,1.64 3.154,-0.543 4.721,-1.096 7.479,-2.726 6.706,-4.367 9.861,-3.281 8.681,2.726 -0.783,14.186 7.49,17.466 14.98,9.82 -6.696,1.639 -7.49,-3.813 -2.372,-16.913 l 9.861,-9.287 c 2.758,-6.549 9.068,-5.996 11.429,-1.63 -1.181,-9.286 -5.913,-12.012 -14.98,-7.646 3.155,-6.55 6.707,-8.733 10.248,-5.453 -3.939,-8.733 -9.454,-9.83 -16.16,-0.554 l -11.429,9.287 -48.095,-24.015 c 25.229,-28.937 43.363,-47.49 53.61,-55.679 4.733,-3.823 8.671,-4.91 9.862,-5.453 3.155,-1.641 4.722,-3.281 8.273,-3.281 2.758,0 4.722,2.184 5.913,4.367 -1.191,-8.19 -0.397,-11.459 -5.515,-15.826 -3.552,-2.727 -6.707,-2.183 -11.042,-3.824 -4.335,-2.726 -5.912,-5.996 -11.042,-7.092 -13.392,-3.27 -23.253,2.183 -38.233,2.183 -3.551,0 -5.913,-0.544 -9.465,-1.087 l 4.346,5.453 c -11.438,0 -18.135,0 -21.289,-1.086 1.18,2.726 2.758,4.91 4.335,5.996 l -14.98,0.543 c -3.938,-0.543 -7.49,-3.813 -10.645,-9.276 L 182.909,134.266 94.6069,0 C 85.9365,10.916 81.2041,30.0224 81.9926,42.0254 L 65.8325,31.1088 C 54.3989,55.6787 55.5844,75.8711 64.6518,92.7837 L 48.0947,82.4209 c -5.521,28.3831 -4.3355,53.4851 3.9434,62.2181 l -17.7432,-2.726 c -3.938,29.468 1.9746,50.215 13.7998,58.404 L 26.8051,189.944 c -3.5463,30.013 7.0982,52.399 32.3262,67.682 L 123.386,299.108 0,330.76 c 11.4336,17.467 17.7431,21.29 38.2387,25.656 l -21.6811,5.453 c 10.6445,6.007 26.4131,20.746 40.9961,17.466 l -14.1914,7.647 c 8.6758,9.277 29.1714,12.546 40.9966,10.363 l -15.3716,8.733 c 8.6704,8.19 31.1397,15.836 44.1507,9.83 l -13.7992,11.459 c 9.4592,6.007 14.9802,11.46 24.0472,6.55 l 13.402,-5.453"
       transform="translate(26.4307,90.6016)"
       id="path2918" />
    <path
       style="fill:#ffffff;fill-rule:nonzero;stroke:none"
       d="M 128.902,4.9199 C 122.2,3.2802 118.648,0 111.947,1.6396 81.9927,7.1035 52.4243,19.6494 16.1602,28.3828 c -6.3096,1.6396 -9.856,0 -16.1602,-0.544 9.459,7.0938 16.5518,10.917 28.3823,9.8301 9.8511,-0.5537 17.3409,-1.0967 26.8052,-6.0058 24.439,-9.8301 38.6304,-15.2833 63.8575,-23.4737 3.547,-1.0859 5.913,-1.6396 9.857,-3.2695"
       transform="translate(55.999,400.072)"
       id="path2920" />
    <path
       style="fill:#ffffff;fill-rule:nonzero;stroke:none"
       d="M 10.6455,0.5527 C 6.3096,2.1826 3.1553,1.6396 0,0 1.5781,7.6465 11.0313,7.6465 10.6455,0.5527"
       transform="translate(335.875,304.009)"
       id="path2922" />
    <path
       style="fill:#ffffff;fill-rule:nonzero;stroke:none"
       d="M 149.79,184.481 C 57.9454,76.4145 8.6704,15.2832 2.7579,0 3.5464,19.1064 0,33.8462 11.4336,48.5752 46.9092,94.9775 74.503,110.261 128.113,168.655 l 21.677,15.826"
       transform="translate(108.032,136.993)"
       id="path2924" />
    <path
       style="fill:#ffffff;fill-rule:nonzero;stroke:none"
       d="M 151.758,144.096 C 57.9458,60.5884 7.0933,12.5562 0,0 3.1548,16.3692 1.9693,30.0225 13.4029,41.482 50.8526,78.0542 76.8692,87.3306 130.866,132.625 l 20.892,11.471"
       transform="translate(93.8403,193.215)"
       id="path2926" />
    <path
       style="fill:#ffffff;fill-rule:nonzero;stroke:none"
       d="M 151.372,107.524 C 58.3427,45.8491 7.8872,9.8301 0,0 5.124,14.1968 5.521,26.1992 17.3462,34.3892 54.3994,62.229 78.4463,67.1382 131.263,99.8872 l 20.109,7.6368"
       transform="translate(81.6182,248.883)"
       id="path2928" />
    <path
       style="fill:#ffffff;fill-rule:nonzero;stroke:none"
       d="M 145.851,75.8711 C 56.7651,32.7491 8.2788,7.6465 0,0 5.9126,12.0137 7.8818,22.376 19.3154,28.3828 55.1875,48.0323 76.8691,49.6719 127.33,71.5049 l 18.521,4.3662"
       transform="translate(78.0718,299.099)"
       id="path2930" />
    <path
       style="fill:#ffffff;fill-rule:nonzero;stroke:none"
       d="M 108.406,0.5429 C 101.71,1.0859 96.9677,0 91.4521,3.8125 66.621,21.2783 44.5429,44.7519 14.9799,67.6709 10.2529,71.4941 5.9125,71.4941 0,73.6767 11.8251,75.8603 19.7119,76.4033 29.9599,70.9512 39.0273,66.584 45.3315,62.7607 52.0327,54.5713 70.5595,35.4756 81.2041,25.1015 100.916,7.0928 c 2.758,-2.7266 4.722,-3.8233 7.49,-6.5499"
       transform="translate(142.719,415.909)"
       id="path2932" />
    <path
       style="fill:#ffffff;fill-rule:nonzero;stroke:none"
       d="M 117.474,2.1836 C 110.768,2.1836 106.046,0 100.133,3.2695 72.9258,16.9131 48.0948,37.1055 15.3721,55.6689 9.8565,58.9385 5.9126,58.3945 0,59.4922 11.0366,63.3047 18.9234,64.9443 29.96,61.1211 39.419,57.8516 46.1206,55.125 54.0073,48.0215 74.8999,31.6523 86.7251,22.9189 108.804,7.6367 c 3.154,-2.1836 5.118,-3.2695 8.67,-5.4531"
       transform="translate(111.578,411.542)"
       id="path2934" />
    <path
       style="fill:#ffffff;fill-rule:nonzero;stroke:none"
       d="M 124.567,3.2696 C 117.866,2.1836 113.525,0 107.221,1.6407 78.4414,11.46 50.8526,27.8399 16.1607,42.0254 10.2481,44.209 6.3047,43.6661 0,43.6661 c 10.6397,5.4521 18.1299,8.1787 29.563,5.9961 9.8565,-2.1836 16.9492,-3.8135 25.625,-9.8194 22.8614,-13.1006 36.2642,-20.1933 59.915,-32.206 3.541,-1.6299 5.912,-2.7266 9.464,-4.3672"
       transform="translate(82.0151,407.719)"
       id="path2936" />
    <path
       style="fill:#c5ab37;fill-rule:nonzero;stroke:none"
       d="M 6.3096,7.6465 3.9439,0 0,0 l 5.9126,7.6465 0.397,0 z"
       transform="translate(151,7.5845)"
       id="path2938" />
    <path
       style="fill:#c5ab37;fill-rule:nonzero;stroke:none"
       d="m 3.5464,43.6655 -2.3609,0 L 0,48.5752 l 2.7631,0 -1.186,4.9102 5.9126,0 1.186,-4.9102 9.0621,0 1.1855,4.9102 5.9126,0 L 14.1914,0 3.5464,43.6655 z m 6.3095,0 3.9434,-19.6494 3.1499,19.6494 -7.0933,0 z"
       transform="translate(143.51,17.9575)"
       id="path2940" />
    <path
       style="fill:#c5ab37;fill-rule:nonzero;stroke:none"
       d="m 13.4028,38.7451 c 0,2.7266 0,4.9097 0,6.0064 -0.789,2.1835 -1.9746,3.27 -3.5517,3.27 -1.9693,0 -3.1499,-1.0865 -3.9385,-3.813 0,-0.5537 -0.397,-2.7368 -0.397,-5.4634 L 5.5156,0 0,0 0,40.3852 c 0,8.733 3.1494,12.5562 9.8511,12.5562 3.1547,0 5.5205,-1.0967 7.0981,-3.2798 1.5772,-1.6401 1.9692,-4.3667 1.9692,-7.6362 l 0,-42.0254 -5.5156,0 0,38.7451 z"
       transform="translate(9.0923,19.0547)"
       id="path2942" />
    <path
       style="fill:#c5ab37;fill-rule:nonzero;stroke:none"
       d="m 0,6.5498 5.521,0 L 5.521,0 0,0 0,6.5498 z"
       transform="translate(32.3457,64.8931)"
       id="path2944" />
    <path
       style="fill:#c5ab37;fill-rule:nonzero;stroke:none"
       d="M 8.6753,22.9195 C 7.0982,20.1929 5.9121,17.4663 5.9121,15.8262 5.9121,10.9165 9.0669,7.647 14.9795,5.4634 L 13.7993,0 C 4.732,3.2803 0,8.19 0,16.3696 c 0,2.1832 1.1856,5.4634 2.7578,8.733 l 5.1289,7.6464 c 1.5723,2.7266 2.3609,4.9102 2.3609,6.5498 0,4.9102 -2.7578,8.19 -9.062,10.3736 l 1.9687,4.9097 c 4.3355,-1.6402 7.4903,-3.2803 9.4595,-5.4634 2.7627,-2.1831 4.335,-5.4532 4.335,-9.2764 0,-2.7266 -1.1802,-5.4531 -2.7579,-8.7329 -1.9692,-2.7266 -3.5463,-5.4531 -5.5156,-8.1899 z"
       transform="translate(42.9907,17.9575)"
       id="path2946" />
    <path
       style="fill:#c5ab37;fill-rule:nonzero;stroke:none"
       d="m 0,6.5498 5.5157,0 L 5.5157,0 0,0 0,6.5498 z"
       transform="translate(65.0688,64.8931)"
       id="path2948" />
    <path
       style="fill:#c5ab37;fill-rule:nonzero;stroke:none"
       d="m 14.5884,48.5752 c -5.521,0 -8.2788,-4.9097 -8.2788,-15.2832 l 0,-10.916 c 0,-4.3667 0.3921,-7.6363 1.5776,-10.9166 1.5772,-4.3559 3.938,-5.996 7.0928,-5.996 0.7891,0 1.5776,0 2.3662,0 L 18.5269,0.5537 C 17.3462,0 15.7691,0 14.5884,0 9.0674,0 5.124,3.2798 2.7632,8.7329 0.7891,13.0996 0,18.563 0,24.5591 c 0,19.6494 4.7324,28.936 14.1914,28.936 1.1856,0 2.7578,0 4.7324,-0.5532 l -1.5776,-4.9102 c -0.7886,0.5435 -1.9692,0.5435 -2.7578,0.5435 z"
       transform="translate(75.708,18.501)"
       id="path2950" />
    <path
       style="fill:#c5ab37;fill-rule:nonzero;stroke:none"
       d="m 0,52.3882 5.521,0 L 5.521,0 0,0 0,52.3882 z"
       transform="translate(99.7554,19.0547)"
       id="path2952" />
    <path
       style="fill:#c5ab37;fill-rule:nonzero;stroke:none"
       d="m 0,4.3662 5.9126,0 0,48.022 5.5205,0 0,-48.022 4.7325,0 L 16.1656,0 1.1856,0 0,4.3662 z"
       transform="translate(109.215,19.0547)"
       id="path2954" />
    <path
       style="fill:#c5ab37;fill-rule:nonzero;stroke:none"
       d="m 0,4.3662 5.9126,0 0,48.022 5.521,0 0,-48.022 4.7271,0 L 16.1607,0 1.1807,0 0,4.3662 z"
       transform="translate(126.56,19.0547)"
       id="path2956" />
    <path
       style="fill:#c5ab37;fill-rule:nonzero;stroke:none"
       d="M 4.3354,0 0,0 l 0,52.3882 6.3096,0 c 5.5156,0 9.062,-1.6299 11.4282,-4.9102 1.9741,-2.7265 2.7524,-7.0928 2.7524,-12.5561 l 0,-15.8262 c 0,-6.5498 -0.7783,-11.4595 -2.7524,-14.186 C 15.3716,1.6294 10.645,0 4.3354,0 z M 14.583,37.6587 c 0,3.2695 -0.3916,5.4531 -1.1802,7.0928 -1.1806,2.1835 -3.1548,2.7265 -5.9126,2.7265 l -1.5776,0 0,-42.5683 c 3.9434,0 6.3096,1.6401 7.4902,3.8232 0.7886,1.6299 1.1802,4.9097 1.1802,9.2764 l 0,19.6494 z"
       transform="translate(180.171,19.0547)"
       id="path2958" />
    <path
       style="fill:#c5ab37;fill-rule:nonzero;stroke:none"
       d="m 0,52.3882 5.5264,0 L 5.5264,0 0,0 0,52.3882 z"
       transform="translate(206.187,19.0547)"
       id="path2960" />
    <path
       style="fill:#c5ab37;fill-rule:nonzero;stroke:none"
       d="M 20.1084,15.2724 C 20.1084,9.8193 18.9287,5.9961 16.5566,3.813 14.1963,1.0864 10.2578,0 4.7314,0 L 0,0 l 0,52.3882 6.3095,0 0,-22.376 c 4.7315,0 8.67,-1.0864 10.6446,-3.27 2.3711,-2.7368 3.1543,-6.5498 3.1543,-11.4698 z m -7.0928,7.1036 c -1.1904,1.6294 -3.1543,2.726 -6.3096,2.726 l -0.3965,0 0,-20.7358 c 3.1543,0 5.5157,1.0864 6.7061,3.27 1.1807,1.6397 1.5674,3.8233 1.5674,7.6362 0,3.2798 -0.3867,5.4634 -1.5674,7.1036 z"
       transform="translate(225.106,19.0547)"
       id="path2962" />
    <path
       style="fill:#c5ab37;fill-rule:nonzero;stroke:none"
       d="m 13.7989,0 -10.2471,43.6655 -2.3721,0 L 0,48.5752 l 2.7578,0 -1.1806,4.9102 5.9121,0 1.1806,-4.9102 8.6709,0 1.1905,4.9102 5.9131,0 L 14.1856,0 13.7989,0 z m -4.335,43.6655 4.335,-19.6494 2.7578,19.6494 -7.0928,0 z"
       transform="translate(240.482,17.9575)"
       id="path2964" />
    <path
       style="fill:#c5ab37;fill-rule:nonzero;stroke:none"
       d="M 5.5156,0 0,0 l 0,52.3882 13.4024,0 0,-4.9102 -7.8868,0 0,-47.478 z"
       transform="translate(270.045,19.0547)"
       id="path2966" />
    <path
       style="fill:#c5ab37;fill-rule:nonzero;stroke:none"
       d="m 8.6709,4.3662 7.5,0 L 14.583,0 2.7578,0 l 0,25.6455 -2.7578,0 0,4.9097 2.7578,0 0,21.833 13.4131,1.0967 0,-5.4634 -7.5,0 0,-17.4663 8.2832,0 0,-4.9097 -8.2832,0 0,-21.2793 z"
       transform="translate(284.628,19.0547)"
       id="path2968" />
    <path
       style="fill:#c5ab37;fill-rule:nonzero;stroke:none"
       d="M 19.7012,16.9126 C 19.7012,5.4526 14.9795,0 5.9121,0 L 0,0 l 0,52.3882 5.9121,0 0,-23.4624 0,-24.0161 0.7842,0 c 4.7314,0 7.0928,3.8232 7.0928,12.0029 0,7.6465 -1.9639,12.0132 -5.9131,13.0996 l 7.1035,22.9292 5.5156,-1.6401 -5.9121,-19.6495 c 3.541,-3.8232 5.1182,-8.7329 5.1182,-14.7392 z"
       transform="translate(307.108,19.0547)"
       id="path2970" />
    <path
       style="fill:#c5ab37;fill-rule:nonzero;stroke:none"
       d="M 15.377,31.1094 6.6963,0 0,53.4854 l 5.9131,0 3.1543,-25.1026 6.6963,22.919 5.5264,-22.919 3.541,25.1026 5.5264,0 L 23.6504,0 15.377,31.1094 z"
       transform="translate(330.361,17.9575)"
       id="path2972" />
    <path
       style="fill:#c5ab37;fill-rule:nonzero;stroke:none"
       d="M 11.8252,0 C 7.4902,0 4.3349,2.7368 2.3711,7.1035 0.7832,10.9165 0,15.2827 0,19.6494 l 0,14.7397 c 0,4.3662 0.7832,8.7329 2.3711,12.5562 1.9638,4.3667 5.1191,6.5498 9.4541,6.5498 8.2841,0 12.6084,-7.103 12.6084,-21.2896 l 0,-9.8295 C 24.4336,7.6465 20.1093,0 11.8252,0 z m 5.913,35.4756 c 0,2.7368 0,5.4633 -0.7841,7.6464 -1.1905,3.8233 -2.7578,5.4532 -5.1289,5.4532 -1.9746,0 -3.5411,-1.6299 -4.7325,-4.3667 C 6.2988,41.4819 5.9131,39.2988 5.9131,36.5722 l 0,-17.4663 c 0,-9.2763 1.9736,-13.6425 5.9121,-13.6425 3.9384,0 5.913,4.3662 5.913,12.5459 l 0,17.4663 z"
       transform="translate(364.26,18.501)"
       id="path2974" />
  </g>
</svg>
