<?xml version="1.0" encoding="UTF-8"?>
<!DOCTYPE svg PUBLIC "-//W3C//DTD SVG 1.1//EN" "http://www.w3.org/Graphics/SVG/1.1/DTD/svg11.dtd">
<!-- Creator: CorelDRAW -->
<svg xmlns="http://www.w3.org/2000/svg" xml:space="preserve" width="2222px" height="2810px" shape-rendering="geometricPrecision" text-rendering="geometricPrecision" image-rendering="optimizeQuality" fill-rule="evenodd" clip-rule="evenodd" viewBox="0 0 2353.17 2975.11" xmlns:xlink="http://www.w3.org/1999/xlink">
 <g id="Ebene_x0020_1">
  <metadata id="CorelCorpID_0Corel-Layer"/>
  <path fill="white" d="M1176.58 2941.46c298.047,-115.266 572.815,-317.88 776.253,-555.853 230.571,-269.706 370.707,-618.388 370.707,-993.679l0.00500266 -1365.72 -2293.92 0 0 1365.72c0,375.287 140.141,723.977 370.706,993.679 203.443,237.973 478.213,440.586 776.25,555.853z"/>
  <path fill="#DC351B" d="M1013.38 2702.17l-25.9338 14.9755 -6.76985 -11.73c-1.08182,7.03749 -2.98909,12.7355 -5.75681,17.0528 -2.75021,4.30979 -6.99121,8.13682 -12.7168,11.4461 -7.6353,4.39859 -14.9479,5.57546 -21.9341,3.51061 -6.99121,-2.0686 -13.217,-7.85167 -18.7024,-17.3492l-26.6141 -46.1057 27.9036 -16.1111 22.9985 39.8312c2.62264,4.53866 5.31907,7.28887 8.0993,8.22687 2.78148,0.945502 5.71178,0.540287 8.74965,-1.21815 3.31801,-1.91977 5.31032,-4.75503 5.95066,-8.53203 0.64034,-3.7695 -0.937998,-8.95726 -4.73752,-15.5433l-20.1269 -34.8535 27.7672 -16.0298 41.8235 72.4297zm0.82919 -37.5937l29.692 -17.1341 16.0698 27.831 -29.687 17.1379 -16.0748 -27.8348zm100.211 -58.4786l28.1462 -12.2478c1.72717,6.33712 2.08236,12.4904 1.08182,18.4273 -0.981771,5.94566 -3.42557,11.5224 -7.31513,16.7239 -3.85955,5.21027 -9.7827,10.1154 -17.7469,14.7178 -7.68158,4.4311 -14.4889,7.40643 -20.4296,8.92974 -5.94065,1.51956 -11.6887,1.73967 -17.2241,0.654097 -5.52668,-1.07307 -10.5881,-3.17794 -15.1768,-6.27958 -4.59369,-3.11916 -8.9535,-8.24438 -13.0732,-15.3894 -4.30479,-7.46021 -6.61226,-14.3889 -6.92368,-20.8211 -0.230122,-4.71125 0.418972,-9.43501 1.9748,-14.2038 1.56333,-4.74252 3.64694,-8.80843 6.25207,-12.199 4.12844,-5.35034 10.4218,-10.4668 18.8688,-15.3431 11.8238,-6.82988 22.0567,-9.91777 30.7163,-9.28243 8.63709,0.649095 16.57,4.30979 23.7739,11.0259l-24.1128 18.5549c-2.60889,-2.61514 -5.44539,-4.09843 -8.51952,-4.4186 -3.06038,-0.306413 -6.40965,0.581559 -10.0478,2.67767 -4.58869,2.65516 -7.36016,6.44217 -8.30316,11.3873 -0.936747,4.94513 0.514023,10.737 4.38233,17.4268 3.43933,5.95441 7.47397,9.67764 12.0664,11.1434 4.6162,1.46453 9.08357,0.932995 13.4471,-1.5921 3.65069,-2.10487 6.17078,-4.7963 7.57277,-8.09555 1.40199,-3.30425 1.60085,-7.23509 0.590313,-11.7963zm39.501 -22.178l29.6795 -17.1391 16.0748 27.836 -29.6795 17.1379 -16.0748 -27.8348zm92.6204 -43.0991l26.0638 -18.5136c3.02035,2.63265 5.98193,4.0434 8.83094,4.26476 2.86277,0.235125 5.99944,-0.626583 9.42125,-2.60138 3.71822,-2.14989 6.13451,-4.61495 7.28387,-7.39268 0.897977,-2.10862 0.830441,-4.03839 -0.193853,-5.80558 -1.15812,-2.01482 -3.08664,-2.93906 -5.80558,-2.84026 -1.93853,0.0950505 -6.48219,1.43826 -13.5997,4.03089 -10.5981,3.88957 -18.1884,6.19829 -22.7733,6.93743 -4.57993,0.730388 -9.14611,0.130069 -13.676,-1.7947 -4.53991,-1.93853 -8.06929,-5.07144 -10.5931,-9.43501 -2.75897,-4.79129 -3.75074,-9.68639 -2.97033,-14.7491 0.779164,-5.06144 3.1104,-9.84898 6.99622,-14.3789 3.88081,-4.49489 9.91151,-9.11984 18.1021,-13.8486 8.63208,-4.98014 15.4032,-8.0105 20.262,-9.06481 4.89135,-1.05431 9.50755,-0.995529 13.8524,0.193853 4.36357,1.18563 8.80843,3.60191 13.3571,7.28512l-24.8332 17.8095c-2.01482,-1.93853 -4.1472,-2.98909 -6.36088,-3.15543 -3.02411,-0.202608 -6.07573,0.604071 -9.16862,2.38877 -3.13667,1.81221 -5.10646,3.69196 -5.90439,5.61673 -0.785417,1.94728 -0.716631,3.72323 0.197605,5.31032 1.01929,1.76219 2.70519,2.58762 5.04893,2.44755 2.33999,-0.143826 6.77485,-1.61336 13.2933,-4.39483 9.82272,-4.27727 17.5443,-6.80236 23.1285,-7.53275 5.56295,-0.720383 10.5531,-0.0675359 14.9254,2.02483 4.39108,2.0686 7.76662,5.179 10.1566,9.31745 2.42504,4.18722 3.51061,8.98352 3.27174,14.3839 -0.233874,5.41788 -2.40628,10.8633 -6.49095,16.3399 -4.06091,5.49042 -10.7957,10.9408 -20.1582,16.3449 -13.2308,7.64156 -23.7514,11.2022 -31.563,10.6569 -7.78038,-0.531532 -14.4927,-3.80952 -20.1007,-9.84523zm98.8688 -95.6633l-28.155 12.5317c-1.67714,-5.20151 -2.33999,-9.68264 -1.99356,-13.4421 0.352687,-3.74949 1.74468,-7.6228 4.16096,-11.6249 1.73967,-2.88903 4.58869,-6.00444 8.61457,-9.35872 4.02089,-3.33927 8.61457,-6.5047 13.7986,-9.49254 8.31191,-4.80505 15.2719,-8.1906 20.8573,-10.1792 5.57546,-1.99231 10.9133,-2.46131 15.9885,-1.45577 3.54313,0.676609 7.08126,2.50258 10.6106,5.4679 3.53438,2.96658 6.27958,6.15327 8.24563,9.56133l18.4673 31.987c1.9748,3.40806 3.73698,5.94941 5.27405,7.64531 1.55958,1.68965 3.92208,3.60566 7.12253,5.76431l-26.0676 15.0517c-2.12363,-1.26692 -3.62943,-2.28496 -4.50864,-3.07914 -0.879217,-0.806678 -2.07735,-2.15364 -3.61942,-4.0559 -1.6096,5.59797 -3.78201,10.1917 -6.50971,13.7661 -3.75825,4.82381 -8.88847,9.13235 -15.3794,12.8881 -8.64584,4.98515 -16.3724,6.76985 -23.1523,5.35034 -6.78861,-1.407 -11.8826,-5.05769 -15.2719,-10.9271 -3.17293,-5.49917 -4.16096,-10.9583 -2.98033,-16.3674 1.17312,-5.40537 5.61673,-11.4861 13.3033,-18.2247 9.19113,-8.10931 15.1055,-13.4784 17.7107,-16.0973 2.61014,-2.62765 5.25529,-5.61673 7.91545,-8.99728 -1.96479,-3.40806 -4.06091,-5.37786 -6.24832,-5.9369 -2.19492,-0.54529 -5.07019,0.202608 -8.61833,2.2537 -4.55242,2.62389 -7.5365,5.32908 -8.96976,8.0918 -1.1231,2.15865 -1.31695,5.13898 -0.595316,8.87972zm32.5135 0.704124c-3.03786,3.5694 -6.32836,7.07251 -9.86274,10.5118 -4.76878,4.75127 -7.47772,8.2944 -8.14057,10.6156 -0.689116,2.39752 -0.468999,4.55242 0.626583,6.45468 1.26692,2.18241 3.06038,3.52062 5.38661,4.03965 2.31248,0.500266 4.95388,-0.0862958 7.92046,-1.80346 3.09164,-1.78095 5.52668,-4.18722 7.32514,-7.23009 1.79345,-3.03411 2.61889,-5.95941 2.49257,-8.75465 -0.126317,-2.80774 -1.19438,-5.94065 -3.19169,-9.40249l-2.55636 -4.4311zm22.0167 -63.4512l25.9413 -14.9742 6.09073 10.5656c1.16687,-6.56724 3.13667,-11.8688 5.8456,-15.926 2.71394,-4.06091 6.7711,-7.63155 12.1352,-10.7282 5.78307,-3.34052 10.9358,-4.96264 15.4795,-4.84132 4.55242,0.0950505 9.06481,1.54582 13.5322,4.36357 1.63212,-7.2526 3.7645,-12.7655 6.36963,-16.5525 2.60138,-3.7645 6.54473,-7.17131 11.8188,-10.2242 7.79039,-4.49364 15.1781,-5.68802 22.2055,-3.59691 7.03624,2.10112 13.3834,8.05553 19.0626,17.887l26.2627 45.4879 -27.8123 16.061 -23.8239 -41.2594c-1.89726,-3.28675 -3.95335,-5.33783 -6.14451,-6.18954 -3.30801,-1.42451 -6.34212,-1.34321 -9.11859,0.257637 -3.27674,1.89225 -5.23403,4.6062 -5.86061,8.11306 -0.644092,3.51186 0.555295,7.89794 3.57065,13.1182l21.5877 37.3874 -27.8398 16.0698 -23.0397 -39.8987c-1.82972,-3.18669 -3.25798,-5.24654 -4.27727,-6.16577 -1.64087,-1.47829 -3.52062,-2.34374 -5.61673,-2.6289 -2.09611,-0.278898 -4.12844,0.153832 -6.08073,1.28068 -3.17794,1.83472 -5.10771,4.54867 -5.75681,8.14057 -0.652847,3.58816 0.604071,8.14558 3.78201,13.6497l21.3401 36.9684 -27.836 16.0698 -41.8172 -72.4347zm197.366 19.374l-57.7307 -99.9944 26.0051 -15.0117 6.18078 10.7019c0.978019,-6.56849 2.51884,-11.5124 4.59744,-14.8529 2.8215,-4.47238 6.67605,-8.11431 11.6024,-10.9583 9.67889,-5.58922 19.3028,-6.21205 28.8991,-1.85348 9.57008,4.34606 17.5131,11.9826 23.8101,22.8997 6.95995,12.0451 9.37123,22.9222 7.27136,32.5961 -2.11863,9.67264 -7.58278,17.0653 -16.4037,22.1593 -4.27852,2.47006 -8.59581,3.98086 -12.9594,4.57118 -4.37357,0.567802 -8.75965,0.238877 -13.1908,-1.02805l19.9606 34.5746 -28.0424 16.1961zm-8.87096 -79.6611c3.31801,5.74805 6.9687,9.30494 10.9808,10.6844 4.02089,1.38323 7.86543,1.00428 11.5536,-1.1281 3.21796,-1.85223 5.15149,-4.74127 5.80058,-8.65835 0.64034,-3.93584 -0.856705,-9.06982 -4.53866,-15.4482 -3.39055,-5.86937 -7.00497,-9.50755 -10.8645,-10.9546 -3.87206,-1.42326 -7.44645,-1.19814 -10.7144,0.690367 -3.54313,2.04233 -5.69803,5.13022 -6.46844,9.27743 -0.7529,4.1372 0.657849,9.3262 4.25101,15.537zm104.543 -145.667l57.7394 100.013 -25.9963 15.0155 -6.18453 -10.7107c-1.01429,6.64103 -2.55511,11.6299 -4.63871,14.9529 -2.78523,4.40359 -6.63978,8.02801 -11.5611,10.8683 -9.87274,5.69302 -19.5641,6.28834 -29.1067,1.7847 -9.54257,-4.48113 -17.418,-12.1077 -23.6113,-22.8321 -6.93368,-12.0176 -9.35872,-22.8671 -7.28512,-32.536 2.08736,-9.7014 7.55026,-17.0941 16.4212,-22.2193 4.3323,-2.50133 8.6596,-4.0434 13.0319,-4.6112 4.36357,-0.585311 8.74965,-0.211362 13.1582,1.1356l-20.0144 -34.6684 28.0474 -16.1923zm8.87596 79.6523c-3.27674,-5.67551 -6.93743,-9.21865 -10.9583,-10.6206 -4.02964,-1.42451 -7.89294,-1.05431 -11.5799,1.07807 -3.21045,1.85223 -5.14398,4.76003 -5.77557,8.70837 -0.639089,3.93084 0.861708,9.07482 4.5124,15.3944 3.41681,5.92315 7.04999,9.59635 10.8683,11.0484 3.85455,1.45077 7.4377,1.2219 10.7557,-0.694119 3.54813,-2.05109 5.68927,-5.14773 6.46468,-9.29118 0.765406,-4.12844 -0.672857,-9.34871 -4.28728,-15.6233zm41.5658 -23.4675c-6.37464,-11.0309 -7.89794,-22.2993 -4.57618,-33.7629 3.32301,-11.4761 11.3335,-20.8661 24.009,-28.1862 14.5152,-8.3807 27.9111,-10.4993 40.1638,-6.37464 9.87149,3.34052 17.6744,9.96279 23.3999,19.8793 6.43717,11.1384 8.0005,22.4119 4.71876,33.7854 -3.26799,11.386 -11.4361,20.8523 -24.4943,28.3938 -11.6487,6.72107 -22.7733,9.18738 -33.3615,7.42519 -13.0419,-2.22743 -23.0085,-9.27242 -29.8596,-21.16zm27.8085 -16.1111c3.71322,6.43717 7.78914,10.4681 12.189,12.0501 4.39483,1.58584 8.5683,1.24816 12.5354,-1.0418 3.99837,-2.31748 6.3959,-5.74305 7.20383,-10.2642 0.824188,-4.54867 -0.726636,-10.1742 -4.61245,-16.8952 -3.61442,-6.27458 -7.60904,-10.2004 -11.9901,-11.7738 -4.35481,-1.58709 -8.44699,-1.24816 -12.2515,0.950505 -4.0534,2.33999 -6.4872,5.82059 -7.34765,10.4631 -0.834193,4.64247 0.585311,10.1329 4.27352,16.5113zm48.043 -76.2167l25.9775 -15.0017 6.84363 11.8513c-0.446487,-6.58099 0.0800425,-11.5937 1.64087,-15.0743 1.53206,-3.47059 4.25976,-6.32336 8.17184,-8.58206 4.10218,-2.37126 9.31245,-3.6782 15.6558,-3.93959l2.8265 24.7244c-4.07967,0.531532 -7.055,1.34822 -8.97602,2.4563 -3.62818,2.09611 -5.59297,5.23403 -5.85061,9.38999 -0.418972,5.86937 2.70894,14.614 9.4075,26.2127l14.0237 24.2829 -27.9023 16.1148 -41.8185 -72.4347zm46.8349 -63.8151l27.7685 -16.0298 10.9083 18.8963 -27.7635 16.0298 -10.9133 -18.8963zm15.9222 27.5784l27.7672 -16.0298 41.8185 72.4347 -27.7635 16.0298 -41.8222 -72.4347zm84.3573 -17.4318l-28.155 12.5354c-1.68214,-5.20151 -2.33999,-9.6914 -2.00231,-13.4546 0.361442,-3.74199 1.74968,-7.61905 4.16596,-11.6212 1.73092,-2.88903 4.58869,-6.00444 8.61833,-9.35372 4.00713,-3.33552 8.60582,-6.5047 13.7936,-9.50255 8.31191,-4.80005 15.2719,-8.1856 20.8523,-10.1742 5.59047,-1.98731 10.9233,-2.46131 15.9935,-1.45577 3.53938,0.676609 7.07751,2.50258 10.6119,5.4679 3.53438,2.96658 6.27458,6.15827 8.23938,9.56133l18.4736 31.9907c1.9698,3.40431 3.73698,5.95066 5.27405,7.64531 1.55458,1.68214 3.91708,3.60191 7.12128,5.76056l-26.0726 15.0517c-2.12738,-1.26192 -3.62442,-2.28496 -4.50239,-3.08289 -0.875465,-0.794172 -2.0786,-2.14989 -3.62442,-4.05215 -1.6046,5.60298 -3.77826,10.1867 -6.50971,13.7711 -3.7595,4.81881 -8.87972,9.13235 -15.3807,12.8831 -8.64084,4.9939 -16.3674,6.77485 -23.146,5.35409 -6.79861,-1.41075 -11.8876,-5.05769 -15.2731,-10.9258 -3.17794,-5.50417 -4.16471,-10.9633 -2.97908,-16.3724 1.16312,-5.40412 5.61173,-11.4861 13.2971,-18.2247 9.20114,-8.10555 15.1105,-13.4734 17.7157,-16.0973 2.61014,-2.62389 5.25654,-5.61673 7.91545,-8.99728 -1.96479,-3.39931 -4.06591,-5.38286 -6.24707,-5.9369 -2.19492,-0.54529 -5.07144,0.20761 -8.61457,2.2537 -4.55242,2.6289 -7.54526,5.32908 -8.97477,8.0918 -1.12185,2.15489 -1.3207,5.13398 -0.590313,8.88472zm32.5098 0.689116c-3.04287,3.5794 -6.32961,7.08251 -9.86274,10.5168 -4.77379,4.76003 -7.48272,8.30316 -8.14558,10.6156 -0.680361,2.39877 -0.463996,4.56242 0.630335,6.45968 1.25817,2.18241 3.06163,3.52062 5.38286,4.0434 2.32624,0.496514 4.95888,-0.0900478 7.92421,-1.80721 3.09664,-1.7847 5.52168,-4.18722 7.32514,-7.23009 1.7897,-3.03911 2.61514,-5.95941 2.49257,-8.74965 -0.130069,-2.81274 -1.19814,-5.94566 -3.19169,-9.40374l-2.55511 -4.44486z"/>
  <path fill="#0079BB" d="M2323.55 86.9049l0 -60.701 -623.676 0 -1670.24 975.082 0 390.64c0,11.1784 0.135072,22.3531 0.382703,33.4915l322.072 -187.962c-47.3714,-10.0929 -89.2074,-23.0085 -117.876,-35.5489 114.392,-23.2999 410.428,-257.581 440.59,-389.724 59.9931,11.3285 89.1936,9.52881 131.756,2.8215 -0.797924,-59.9706 33.1539,-116.389 94.0349,-134.19 -2.07735,-74.6171 62.1392,-135.408 138.113,-165.912 80.8679,-32.4647 182.446,-27.6634 224.16,28.3713 38.9782,-23.9039 119.306,-10.2542 158.166,64.0152 -33.5103,7.97799 -42.6376,12.0889 -64.8257,22.0292 7.17631,3.27174 14.7954,6.20705 22.8096,8.81718l944.537 -551.229z"/>
  <path fill="#DC351B" d="M2323.55 688.422l0 -161.219 -630.203 368.007 14.9567 16.2774c42.445,0.360191 131.193,7.28887 201.139,18.7162l414.107 -241.781zm-1907.63 952.727l-321.378 187.666c13.7486,45.3341 29.5657,89.839 47.3401,133.406l348.29 -203.357c4.25976,-15.1555 6.82863,-29.5357 6.82863,-41.4533 -33.5328,3.98462 -88.4782,17.7019 -115.898,23.5212 10.5706,-17.6706 26.1176,-59.6417 34.8172,-99.783z"/>
  <path fill="#1F1A17" d="M2323.55 848.734l0 -160.313 -414.102 241.776c0.446487,0.0725385 0.896726,0.148829 1.33821,0.221368 47.7641,-3.64694 144.184,-27.9248 189.302,-39.456 -32.5048,93.0894 -122.065,166.997 -199.341,201.748 0.676609,0.571554 1.35322,1.13936 2.01982,1.6984l420.783 -245.675zm-1833.37 910.13l-348.29 203.357c13.4459,43.0391 35.6689,85.164 58.321,126.252l290.748 -169.756c24.0628,-24.3504 46.0732,-50.6131 58.5286,-73.6116 -36.9684,0.342682 -64.0503,7.60904 -106.144,11.6975 17.1879,-21.8529 36.7433,-62.0442 46.8361,-97.9383z"/>
  <path fill="#0079BB" d="M2285.55 1727.6c24.8419,-108.403 37.9952,-220.797 37.9952,-335.677l0.00500266 -110.025 -374.849 218.742c-3.84079,93.666 -10.8645,211.669 -11.4136,251.81 -101.095,-22.1505 -154.706,-80.3189 -194.041,-131.914l-153.997 89.8665c25.5948,56.3324 122.853,123.083 174.783,147.997 -126.433,1.28068 -232.33,31.9144 -391.569,140.623 -145.122,99.0751 -254.646,220.365 -319.202,324.11 6.17203,-55.7021 4.15721,-188.738 -11.6424,-293.156l-630.605 368.003c82.0586,94.3376 175.314,182.91 276.721,262.444l1597.81 -932.825z"/>
  <path fill="#1F1A17" d="M690.39 844.812c-40.5153,125.852 -293.052,334.176 -395.007,356.368 101.775,19.9556 214.879,33.439 326.202,20.6635 5.23778,20.2132 9.27618,44.2072 -3.14667,63.6038 -28.6777,-2.97533 -121.433,9.75018 -150.103,25.8612 4.59369,47.9042 0.726636,122.376 -8.82594,167.935l-178.366 -0.410218c-0.775412,-27.7672 -7.51024,-54.8904 -15.7721,-78.678l-117.499 -0.0312666c-19.3203,59.4303 -21.3451,136.603 0.54529,208.857l116.015 0.18885c9.32245,-22.7909 13.3208,-61.9054 16.1286,-83.5731l136.539 -0.0450239c-13.6485,16.5525 -36.3143,36.1567 -57.3017,48.2731l94.4639 3.66945c0.346434,45.7305 -16.3412,98.9213 -31.099,123.583 26.1139,-5.53919 77.7225,-18.1384 109.659,-18.1384 0,38.2303 -18.8563,123.656 -42.1386,141.461 52.9931,-11.9363 83.6282,-9.41625 111.508,0.423975 -26.6179,47.5427 -90.2717,108.798 -129.345,136.778 89.9878,-6.91867 363.837,8.21311 468.084,54.8641 7.75287,-52.1139 28.4839,-131.901 68.8278,-179.891 55.2656,39.7674 85.3003,302.239 75.699,388.914 68.5264,-116.079 409.464,-400.629 588.714,-388.756 -42.9853,-26.1676 -95.9247,-70.3974 -117.584,-124.801 -16.8464,-42.3087 -14.7766,-90.772 25.6036,-141.673 30.1435,-37.9864 83.8533,-54.0162 130.328,-30.585 52.1314,26.289 79.7361,129.11 195.779,174.251 0.590313,-43.4231 8.95225,-163.185 11.9814,-255.328 1.72717,-52.5504 35.1387,-96.505 105.545,-74.3495 -30.3011,-57.523 -62.3919,-179.958 -69.4369,-231.783 -38.2753,-12.6355 -65.0383,-37.4286 -99.9643,-67.1569 73.5941,-33.1001 152.037,-86.0932 199.098,-158.658 -42.9728,10.9846 -123.571,34.0869 -168.333,27.1907 -66.0964,-10.1829 -153.325,-15.7771 -194.008,-16.1248l-49.4538 -49.8277c67.1332,-38.9382 221.857,-121.389 337.304,-287.021 -152.501,47.0737 -537.086,102.988 -683.886,36.0254 2.84026,-12.2878 19.9731,-37.3061 78.6243,-42.0886 -36.7745,-45.9869 -94.5189,-26.3878 -128.124,-17.3505 -77.0409,-103.497 -320.977,-25.5723 -316.885,121.146 -48.7822,18.5899 -77.3248,41.841 -93.7786,96.8402 35.1699,-20.0231 68.0311,-28.5076 98.5886,-25.456 9.31745,86.711 -209.406,86.3546 -245.18,74.8285z"/>
  <polygon fill="#1F1A17" points="2353.17,17.1078 2353.17,1409.18 2318.96,1409.18 2318.96,17.1078"/>
  <path fill="#1F1A17" d="M2353.17 1409.18c0,187.766 -34.7735,366.132 -97.5393,531.814 -66.4665,175.454 -164.315,336.574 -285.457,479.461 -102.992,121.47 -222.84,229.8 -354.555,322.569 -133.717,94.18 -279.727,172.384 -432.82,232.079l-12.4278 -0.00375199c-153.086,-59.6917 -299.096,-137.892 -432.819,-232.076 -131.716,-92.7693 -251.559,-201.096 -354.551,-322.569 -121.146,-142.882 -218.99,-303.993 -285.457,-479.456 -62.7658,-165.692 -97.5431,-344.053 -97.5431,-531.819l34.2144 0c0,183.636 33.9655,357.969 95.2656,519.791 65.0283,171.669 160.868,329.421 279.578,469.436 101.069,119.202 218.742,225.554 348.132,316.686 129.674,91.3323 271.113,167.381 419.39,225.77 148.277,-58.3923 289.721,-134.434 419.39,-225.77 129.404,-91.1321 247.074,-197.484 348.141,-316.686 118.712,-140.023 214.545,-297.772 279.578,-469.439 61.3013,-161.818 95.2618,-336.146 95.2618,-519.787l34.2144 0z"/>
  <polygon fill="#1F1A17" points="0,1409.18 0,0.00125066 2336.06,0.00125066 2336.06,34.2194 34.2144,34.2194 34.2144,1409.18"/>
 </g>
</svg>