<?xml version="1.0" encoding="utf-8"?>
<!-- Generator: Adobe Illustrator 13.0.2, SVG Export Plug-In . SVG Version: 6.00 Build 14948)  -->
<!DOCTYPE svg PUBLIC "-//W3C//DTD SVG 1.0//EN" "http://www.w3.org/TR/2001/REC-SVG-20010904/DTD/svg10.dtd">
<svg version="1.0" id="Ebene_1" xmlns="http://www.w3.org/2000/svg" xmlns:xlink="http://www.w3.org/1999/xlink" x="0px" y="0px"
	 width="566px" height="566px" viewBox="0 0 566 566" enable-background="new 0 0 566 566" xml:space="preserve">
<path d="M283.001,0C439.299,0,566,126.699,566,282.996C566,439.294,439.299,566,283.001,566C126.7,566,0,439.294,0,282.996
	C0,126.699,126.7,0,283.001,0z"/>
<circle fill="#FFFFFF" cx="283.001" cy="283" r="189.131"/>
<path d="M359.699,301.557l68.335,89.375c22.452-30.122,35.744-67.475,35.744-107.934c0-99.844-80.932-180.776-180.774-180.776
	c-99.85,0-180.782,80.932-180.782,180.776c0,40.459,13.292,77.812,35.745,107.934l68.334-89.375
	c0.776,11.518,3.403,31.232,11.995,51.969l-51.777,67.712c31.462,26.538,72.101,42.541,116.486,42.541
	c44.382,0,85.019-16.003,116.479-42.54l-51.778-67.713C356.297,332.789,358.924,313.074,359.699,301.557z"/>
<path fill="#D6B61A" d="M142.588,83.094c-3.362-13.005,13.015-42.481,44.55-49.594C187.138,33.5,145.958,96.109,142.588,83.094z"/>
<path fill="#D6B61A" d="M125.369,107.898c4.516,6.318,14.695-47.075,12.168-58.021c0,0-14.695,26.949-15.532,39.957
	C122.005,89.834,116.954,96.109,125.369,107.898z"/>
<path fill="#D6B61A" d="M126.211,128.481c0,0,2.906-19.365,11.326-29.849c8.42-10.481,50.438-42.481,52.971-46.229
	c0,0-1.954,23.1-15.538,33.224C151.853,102.847,126.211,128.481,126.211,128.481z"/>
<path fill="#D6B61A" d="M124.532,138.59c0,0,15.998-29.011,52.118-29.855c0,0-14.92,14.462-26.479,20.59
	C140.774,134.307,124.532,138.59,124.532,138.59z"/>
<path fill="#D6B61A" d="M79.979,189.408c0.845,2.527,13.015-21.805,19.755-30.227c6.731-8.42,22.652-48.378,13.005-57.179
	c0,0-10.481,19.746-16.377,26.479c-3.172,3.63-11.119,23.671-14.694,38.654C78.602,180.004,79.595,188.242,79.979,189.408z"/>
<path fill="#D6B61A" d="M78.299,204.568c0,0,35.286-17.222,39.492-46.232c0,0-15.292,11.388-23.115,20.59
	C86.993,187.966,78.299,204.568,78.299,204.568z"/>
<path fill="#D6B61A" d="M69.877,276.814c0.771,16.847,21.056-23.496,15.161-58.396C85.038,218.418,68.19,239.847,69.877,276.814z"/>
<path fill="#D6B61A" d="M62.76,265.488c0,0-2.061-12.629,1.687-33.217c3.743-20.593,6.274-31.535,4.588-44.545
	c-1.68-13.013-7.957-19.746-7.957-19.746s-3.369,14.695-5.896,23.11c-2.524,8.419-3.369,36.127-3.369,42.86
	C51.813,254.542,62.76,265.488,62.76,265.488z"/>
<path fill="#D6B61A" d="M82.528,139.778c0,0,24.804-32.718,20.583-54.144c0,0-10.452,3.376-16.362,21.425
	C80.838,125.112,82.528,139.778,82.528,139.778z"/>
<path fill="#D6B61A" d="M75.766,170.5c0,0,0.845-25.966-1.689-35.257c-2.529-9.286-5.907-21.427-5.907-21.427
	s-8.216,17.572-6.225,27.652C66.166,162.896,75.766,170.5,75.766,170.5z"/>
<path fill="#D6B61A" d="M46.136,211.863c0,0,4.173-35.497,3.484-45.239c-0.696-9.751-1.394-16.009-5.572-16.009
	c-4.18,0-5.572,7.652-6.26,16.706C37.092,176.366,46.136,211.863,46.136,211.863z"/>
<path fill="#D6B61A" d="M48.924,251.537c2.081,4.173-2.788-16.706-4.18-23.669c-1.392-6.958-9.046-22.273-11.832-25.748
	c-2.786-3.481-6.268-8.357-6.268-8.357s-2.083,11.136,0,19.494C28.735,221.605,46.834,247.359,48.924,251.537z"/>
<path fill="#D6B61A" d="M88.591,355.243c0,0,2.786-27.845,0.696-39.674c-2.08-11.835-4.869-17.401-7.652-21.577
	c-2.786-4.175-5.567,11.835-5.567,11.835s1.387,20.18,4.173,29.928C83.027,345.496,88.591,355.243,88.591,355.243z"/>
<path fill="#D6B61A" d="M77.455,343.413c0,0-5.564-16.015-7.652-28.545c-2.09-12.525-5.567-28.53-9.049-34.798
	c-3.481-6.261-11.134-21.574-24.36-23.665c0,0,6.26,17.404,9.046,28.541c2.786,11.134,7.654,28.54,13.922,38.282
	C65.623,332.971,77.455,343.413,77.455,343.413z"/>
<path fill="#D6B61A" d="M56.576,331.579c0,0-13.922-21.577-25.754-26.453c-11.832-4.876-13.919-5.562-19.484-5.562
	c0,0,2.088,11.83,13.224,18.093l17.396,8.35L56.576,331.579z"/>
<path fill="#D6B61A" d="M47.53,310.002c0,0-6.267-22.969-11.832-32.717c-5.571-9.742-11.136-16.003-21.577-20.181
	c0,0,4.173,13.224,7.655,22.966c0,0,3.484,10.438,14.618,20.18L47.53,310.002z"/>
<path fill="#D6B61A" d="M113.647,415.793c0,0-11.832-11.83-16.002-20.18c-4.178-8.354-14.618-27.148-20.886-34.799
	c-6.261-7.663-13.922-16.01-31.319-17.401c0,0,10.44,12.526,13.922,20.181c3.474,7.659,20.878,32.02,27.844,36.891
	C94.163,405.36,113.647,415.793,113.647,415.793z"/>
<path fill="#D6B61A" d="M125.479,419.974c6.966,6.958-4.17-38.282-24.36-54.988c0,0-0.696,13.922,2.786,26.448
	C103.905,391.434,118.523,413.01,125.479,419.974z"/>
<path fill="#D6B61A" d="M92.769,415.103c0,0-11.832-13.227-32.71-19.489c-20.886-6.268-23.665-1.392-23.665-1.392
	s13.915,11.83,22.272,13.922C67.017,410.227,92.769,415.103,92.769,415.103z"/>
<path fill="#D6B61A" d="M67.713,389.346c0,0-13.227-25.056-24.36-32.711c0,0-4.876-5.571-18.791-9.046c0,0,6.26,18.093,12.53,21.577
	l20.878,13.917L67.713,389.346z"/>
<path fill="#D6B61A" d="M176.988,466.606c0,0-13.227-4.175-23.664-10.438c-10.441-6.269-22.273-20.886-34.801-26.448
	c-12.528-5.576-16.708-6.968-34.801-5.576c0,0,16.012,10.442,22.273,16.71c0,0,30.627,21.577,45.238,23.664L176.988,466.606z"/>
<path fill="#D6B61A" d="M188.125,467.302c0,0-15.316-25.752-22.968-30.627c-7.652-4.867-15.314-7.654-24.363-9.743
	c0,0,6.966,16.016,15.316,20.882C164.46,452.685,188.125,467.302,188.125,467.302z"/>
<path fill="#D6B61A" d="M156.11,472.173c9.046-0.69-20.878-6.958-40.373-6.263c0,0-11.832,0.696-24.36,4.181
	c0,0,12.528,6.958,27.844,6.958C119.221,477.049,147.063,472.864,156.11,472.173z"/>
<path fill="#D6B61A" d="M120.613,458.947c8.348,2.783-22.272-19.484-32.022-22.272c-9.742-2.779-16.005-3.475-25.059-2.779
	c0,0,6.966,9.742,20.19,15.31C96.949,454.776,112.255,456.169,120.613,458.947z"/>
<path fill="#D6B61A" d="M266.081,490.271c0,0-15.313-12.53-30.63-16.706c-15.314-4.175-16-4.175-31.316-2.778
	c0,0,12.528,11.134,27.841,15.305C247.285,490.271,266.081,490.271,266.081,490.271z"/>
<path fill="#D6B61A" d="M249.373,496.533c0,0-25.752-3.475-38.979-8.351c-13.224-4.865-18.788-9.045-32.015-10.442
	c-13.224-1.392-27.842,3.484-31.316,9.052c0,0,23.662,4.875,29.925,7.658c6.268,2.779,32.71,9.047,41.764,7.655
	c2.455-0.379,10.018-0.965,13.639-1.612C242.107,498.751,249.373,496.533,249.373,496.533z"/>
<path fill="#D6B61A" d="M192.998,506.285c3.477,0.691-31.323-11.835-44.542-11.139c-13.224,0.696-14.619-2.088-23.672,0.696
	c0,0,14.618,11.134,23.672,11.134C157.504,506.977,189.516,505.585,192.998,506.285z"/>
<path fill="#D6B61A" d="M227.103,508.368c6.268,0-16.708,11.83-39.676,15.309c-22.966,3.484-25.056,0.701-25.056,0.701
	s16.01-11.139,29.236-13.227C204.831,509.059,220.835,508.368,227.103,508.368z"/>
<path fill="#D6B61A" d="M273.038,497.926c0,0-24.36,18.798-29.227,23.664c-4.876,4.876-25.059,22.969-48.723,21.582
	c0,0,16.701-13.918,20.182-18.794c3.482-4.871,25.056-19.489,37.587-21.576C265.385,500.709,273.038,497.926,273.038,497.926z"/>
<path fill="#D6B61A" d="M277.913,502.802c0,0-5.571,20.875-16.708,34.798c-11.134,13.922-15.307,13.922-15.307,13.922
	s0-14.618,5.565-22.268C257.035,521.59,277.913,502.802,277.913,502.802z"/>
<path fill="#D6B61A" d="M423.402,83.094c3.369-13.005-13.006-42.481-44.545-49.594C378.857,33.5,420.034,96.109,423.402,83.094z"/>
<path fill="#D6B61A" d="M440.622,107.898c-4.507,6.318-14.696-47.075-12.161-58.021c0,0,14.686,26.949,15.529,39.957
	C443.99,89.834,449.044,96.109,440.622,107.898z"/>
<path fill="#D6B61A" d="M439.786,128.481c0,0-2.902-19.365-11.325-29.849c-8.427-10.481-50.448-42.481-52.973-46.229
	c0,0,1.948,23.1,15.54,33.224C414.141,102.847,439.786,128.481,439.786,128.481z"/>
<path fill="#D6B61A" d="M441.466,138.59c0,0-15.995-29.011-52.123-29.855c0,0,14.926,14.462,26.487,20.59
	C425.226,134.307,441.466,138.59,441.466,138.59z"/>
<path fill="#D6B61A" d="M486.012,189.408c-0.835,2.527-13.006-21.805-19.748-30.227c-6.733-8.42-22.647-48.378-13.007-57.179
	c0,0,10.481,19.746,16.38,26.479c3.168,3.63,11.119,23.671,14.695,38.654C487.398,180.004,486.404,188.242,486.012,189.408z"/>
<path fill="#D6B61A" d="M487.701,204.568c0,0-35.288-17.222-39.497-46.232c0,0,15.294,11.388,23.122,20.59
	C479.004,187.966,487.701,204.568,487.701,204.568z"/>
<path fill="#D6B61A" d="M496.118,276.814c-0.763,16.847-21.054-23.496-15.156-58.396
	C480.962,218.418,497.803,239.847,496.118,276.814z"/>
<path fill="#D6B61A" d="M503.23,265.488c0,0,2.068-12.629-1.68-33.217c-3.748-20.593-6.277-31.535-4.592-44.545
	c1.688-13.013,7.961-19.746,7.961-19.746s3.369,14.695,5.894,23.11c2.529,8.419,3.364,36.127,3.364,42.86
	C514.178,254.542,503.23,265.488,503.23,265.488z"/>
<path fill="#D6B61A" d="M483.473,139.778c0,0-24.807-32.718-20.584-54.144c0,0,10.453,3.376,16.366,21.425
	C485.157,125.112,483.473,139.778,483.473,139.778z"/>
<path fill="#D6B61A" d="M490.234,170.5c0,0-0.854-25.966,1.689-35.257c2.529-9.286,5.902-21.427,5.902-21.427
	s8.212,17.572,6.23,27.652C499.833,162.896,490.234,170.5,490.234,170.5z"/>
<path fill="#D6B61A" d="M519.865,211.863c0,0-4.181-35.497-3.484-45.239c0.695-9.751,1.391-16.009,5.571-16.009
	c4.17,0,5.562,7.652,6.258,16.706C528.906,176.366,519.865,211.863,519.865,211.863z"/>
<path fill="#D6B61A" d="M517.076,251.537c-2.088,4.173,2.789-16.706,4.18-23.669c1.392-6.958,9.046-22.273,11.83-25.748
	c2.778-3.481,6.263-8.357,6.263-8.357s2.088,11.136,0,19.494C537.256,221.605,519.163,247.359,517.076,251.537z"/>
<path fill="#D6B61A" d="M477.402,355.243c0,0-2.779-27.845-0.701-39.674c2.092-11.835,4.876-17.401,7.664-21.577
	c2.779-4.175,5.563,11.835,5.563,11.835s-1.392,20.18-4.171,29.928C482.974,345.496,477.402,355.243,477.402,355.243z"/>
<path fill="#D6B61A" d="M488.536,343.413c0,0,5.571-16.015,7.659-28.545c2.093-12.525,5.566-28.53,9.051-34.798
	c3.479-6.261,11.135-21.574,24.36-23.665c0,0-6.263,17.404-9.046,28.541c-2.789,11.134-7.664,28.54-13.923,38.282
	C500.37,332.971,488.536,343.413,488.536,343.413z"/>
<path fill="#D6B61A" d="M509.422,331.579c0,0,13.922-21.577,25.752-26.453c11.834-4.876,13.917-5.562,19.488-5.562
	c0,0-2.087,11.83-13.226,18.093l-17.401,8.35L509.422,331.579z"/>
<path fill="#D6B61A" d="M518.473,310.002c0,0,6.268-22.969,11.829-32.717c5.563-9.742,11.135-16.003,21.573-20.181
	c0,0-4.172,13.224-7.65,22.966c0,0-3.484,10.438-14.618,20.18L518.473,310.002z"/>
<path fill="#D6B61A" d="M452.341,415.793c0,0,11.835-11.83,16.015-20.18c4.18-8.354,14.618-27.148,20.881-34.799
	c6.263-7.663,13.917-16.01,31.324-17.401c0,0-10.438,12.526-13.923,20.181c-3.484,7.659-20.881,32.02-27.845,36.891
	C471.835,405.36,452.341,415.793,452.341,415.793z"/>
<path fill="#D6B61A" d="M440.511,419.974c-6.959,6.958,4.18-38.282,24.361-54.988c0,0,0.695,13.922-2.779,26.448
	C462.093,391.434,447.475,413.01,440.511,419.974z"/>
<path fill="#D6B61A" d="M473.227,415.103c0,0,11.834-13.227,32.711-19.489c20.88-6.268,23.669-1.392,23.669-1.392
	s-13.922,11.83-22.272,13.922C498.983,410.227,473.227,415.103,473.227,415.103z"/>
<path fill="#D6B61A" d="M498.288,389.346c0,0,13.226-25.056,24.359-32.711c0,0,4.866-5.571,18.789-9.046
	c0,0-6.263,18.093-12.53,21.577l-20.877,13.917L498.288,389.346z"/>
<path fill="#D6B61A" d="M389.012,466.606c0,0,13.227-4.175,23.665-10.438c10.438-6.269,22.272-20.886,34.798-26.448
	c12.525-5.576,16.701-6.968,34.803-5.576c0,0-16.014,10.442-22.277,16.71c0,0-30.622,21.577-45.236,23.664L389.012,466.606z"/>
<path fill="#D6B61A" d="M377.869,467.302c0,0,15.313-25.752,22.978-30.627c7.649-4.867,15.304-7.654,24.36-9.743
	c0,0-6.968,16.016-15.319,20.882C401.538,452.685,377.869,467.302,377.869,467.302z"/>
<path fill="#D6B61A" d="M409.888,472.173c-9.041-0.69,20.882-6.958,40.376-6.263c0,0,11.829,0.696,24.359,4.181
	c0,0-12.53,6.958-27.844,6.958C446.779,477.049,418.939,472.864,409.888,472.173z"/>
<path fill="#D6B61A" d="M445.388,458.947c-8.352,2.783,22.271-19.484,32.015-22.272c9.742-2.779,16.01-3.475,25.056-2.779
	c0,0-6.959,9.742-20.181,15.31C469.052,454.776,453.737,456.169,445.388,458.947z"/>
<path fill="#D6B61A" d="M299.917,490.271c0,0,15.313-12.53,30.622-16.706c15.314-4.175,16.011-4.175,31.324-2.778
	c0,0-12.53,11.134-27.84,15.305C318.705,490.271,299.917,490.271,299.917,490.271z"/>
<path fill="#D6B61A" d="M316.622,496.533c0,0,25.753-3.475,38.974-8.351c13.227-4.865,18.798-9.045,32.025-10.442
	c13.226-1.392,27.844,3.484,31.318,9.052c0,0-23.669,4.875-29.928,7.658c-6.267,2.779-32.72,9.047-41.767,7.655
	c-2.461-0.379-10.016-0.965-13.639-1.612C323.894,498.751,316.622,496.533,316.622,496.533z"/>
<path fill="#D6B61A" d="M373.002,506.285c-3.484,0.691,31.319-11.835,44.54-11.139c13.228,0.696,14.618-2.088,23.665,0.696
	c0,0-14.608,11.134-23.665,11.134C408.496,506.977,376.482,505.585,373.002,506.285z"/>
<path fill="#D6B61A" d="M338.895,508.368c-6.267,0,16.701,11.83,39.675,15.309c22.969,3.484,25.051,0.701,25.051,0.701
	s-15.999-11.139-29.227-13.227C361.168,509.059,345.158,508.368,338.895,508.368z"/>
<path fill="#D6B61A" d="M292.963,497.926c0,0,24.351,18.798,29.227,23.664c4.876,4.876,25.056,22.969,48.72,21.582
	c0,0-16.704-13.918-20.18-18.794c-3.484-4.871-25.056-19.489-37.586-21.576C300.612,500.709,292.963,497.926,292.963,497.926z"/>
<path fill="#D6B61A" d="M288.087,502.802c0,0,5.563,20.875,16.705,34.798c11.139,13.922,15.306,13.922,15.306,13.922
	s0-14.618-5.563-22.268C308.963,521.59,288.087,502.802,288.087,502.802z"/>
<path fill="#FFFFFF" d="M157.876,249.027c-2.323-1.605-5.75-2.843-10.277-3.722l-17.068-3.321c-3.431-0.667-5.562-1.399-6.388-2.193
	c-0.831-0.823-1.195-2.272-1.075-4.363l-1.216-0.239l-2.356,12.148l1.209,0.233c0.612-1.864,1.442-3.052,2.491-3.559
	c1.027-0.506,3.328-0.415,6.887,0.281l17.073,3.313c4.185,0.816,7.196,1.829,9.046,3.038c3.299,2.167,4.53,5.387,3.7,9.672
	c-0.761,3.912-3.026,6.232-6.803,6.95c-2.069,0.381-4.819,0.232-8.257-0.435l-20.972-4.074c-2.412-0.471-3.89-1.068-4.439-1.792
	c-0.562-0.734-0.739-2.124-0.514-4.171l-1.214-0.24l-2.901,14.884l1.219,0.24c0.583-1.941,1.264-3.139,2.059-3.587
	c0.782-0.473,2.366-0.473,4.756-0.007l20.492,3.981c4.06,0.787,7.429,0.874,10.123,0.24c5.008-1.155,8.063-4.567,9.165-10.237
	C163.736,256.334,162.152,251.988,157.876,249.027z"/>
<path fill="#FFFFFF" d="M168.991,211.82c-1.941-2.013-4.221-3.657-6.839-4.931c-7.266-3.544-13.471-3.628-18.621-0.237
	c-2.855,1.869-5.219,4.72-7.083,8.533l-5.523,11.323l0.979,0.48c0.893-1.493,1.723-2.328,2.495-2.52
	c0.771-0.182,2.105,0.192,4.027,1.125l23.369,11.398c1.982,0.969,3.108,1.807,3.376,2.517c0.254,0.696,0.106,1.867-0.437,3.496
	l0.95,0.458l5.696-11.672c1.529-3.138,2.323-6.013,2.381-8.652c0.041-1.436-0.186-2.947-0.677-4.545
	C172.303,216.077,170.932,213.818,168.991,211.82z M168.878,231.967c-0.514,1.058-0.984,1.682-1.428,1.893
	c-0.437,0.197-1.078,0.084-1.937-0.331l-26.702-13.027c-0.871-0.422-1.358-0.864-1.457-1.315c-0.084-0.473,0.098-1.176,0.557-2.119
	c1.85-3.792,4.501-6.268,7.942-7.434c4.031-1.351,8.737-0.72,14.124,1.913c6.038,2.939,9.512,6.649,10.419,11.122
	C170.988,225.588,170.481,228.682,168.878,231.967z"/>
<path fill="#FFFFFF" d="M185.507,205.636c-0.772,0.12-2.065-0.506-3.875-1.869l-20.766-15.645c-1.718-1.296-2.654-2.349-2.8-3.168
	c-0.161-0.83,0.281-2.032,1.336-3.621l-0.866-0.655l-8.329,11.053l0.867,0.655c1.238-1.459,2.28-2.217,3.117-2.289
	c0.83-0.084,2.094,0.523,3.81,1.816l20.766,15.652c1.81,1.358,2.767,2.433,2.865,3.213c0.091,0.775-0.374,1.965-1.377,3.587
	l0.842,0.633l8.329-11.043l-0.844-0.64C187.302,204.736,186.275,205.512,185.507,205.636z"/>
<path fill="#FFFFFF" d="M193.289,196.491c-1.205-0.223-2.879-1.526-5.016-3.897l-15.236-16.924l36.818,9.975l0.59-0.535
	l-20.583-22.863c-2.054-2.279-3.144-3.933-3.278-4.967c-0.127-1.032,0.387-2.229,1.56-3.594l-0.725-0.802l-8.159,7.343l0.725,0.812
	c1.406-1.013,2.502-1.45,3.299-1.323c1.209,0.216,2.899,1.512,5.051,3.904l13.078,14.532l-32.219-8.864l-5.951,5.371l0.725,0.802
	c0.737-0.613,1.363-0.987,1.879-1.121c0.511-0.153,1.363-0.084,2.543,0.207l1.106,0.273l17.248,19.148
	c2.061,2.292,3.179,3.94,3.342,4.945c0.153,0.986-0.408,2.222-1.675,3.7l0.703,0.78l8.161-7.35l-0.703-0.782
	C195.165,196.218,194.069,196.633,193.289,196.491z"/>
<path fill="#FFFFFF" d="M199.633,148.537c0.739,0.324,1.588,1.394,2.567,3.229l12.207,22.954c1.032,1.949,1.454,3.292,1.26,4.024
	c-0.199,0.703-1.003,1.563-2.414,2.568l0.499,0.936l22.321-11.868l-2.764-9.715l-1.147,0.614c0.499,3.503,0.288,5.992-0.626,7.477
	c-0.936,1.464-2.793,2.939-5.593,4.425c-2.58,1.373-4.178,2.104-4.804,2.193c-0.605,0.094-1.183-0.379-1.73-1.406l-6.791-12.775
	l6.354-3.374c1.745-0.931,3.033-1.2,3.861-0.796c0.825,0.379,1.921,1.49,3.299,3.318l0.965-0.511l-6.352-11.945l-0.965,0.511
	c0.768,2.16,1.085,3.695,0.943,4.609c-0.132,0.914-1.083,1.836-2.841,2.772l-6.352,3.376l-6.122-11.516
	c-0.357-0.677-0.535-1.161-0.521-1.471c0.015-0.331,0.324-0.653,0.929-0.976l5.601-2.983c2.419-1.281,4.156-1.78,5.212-1.479
	c1.063,0.303,2.371,1.498,3.933,3.602l1.049-0.557l-4.082-7.335L195.595,148.1l0.506,0.958
	C197.707,148.376,198.88,148.208,199.633,148.537z"/>
<path fill="#FFFFFF" d="M238.633,128.702c-2.498,0.665-4.254,2.15-5.262,4.449c-1.006,2.304-1.123,4.876-0.365,7.72
	c0.576,2.152,1.744,3.947,3.503,5.387c0.94,0.753,2.116,1.435,3.522,2.042l4.665,1.967c2.68,1.133,4.482,2.042,5.409,2.723
	c1.423,1.078,2.378,2.534,2.87,4.37c0.55,2.04,0.444,3.769-0.307,5.19c-0.739,1.42-1.828,2.328-3.271,2.709
	c-2.661,0.718-5.243,0-7.738-2.147c-1.435-1.229-2.87-3.016-4.314-5.346l-1.039,0.276l4.564,11.664l0.991-0.269
	c-0.063-0.478-0.055-0.934,0.01-1.392c0.084-0.451,0.394-0.753,0.922-0.892c0.216-0.058,1.173,0.041,2.87,0.293
	c1.704,0.254,3.256,0.191,4.65-0.183c2.778-0.744,4.789-2.35,6.042-4.812c1.258-2.461,1.498-5.175,0.703-8.139
	c-0.59-2.2-1.605-3.98-3.038-5.332c-1.442-1.322-3.667-2.611-6.664-3.856l-4.785-1.996c-1.792-0.739-3.18-1.541-4.17-2.4
	c-0.977-0.844-1.661-1.984-2.054-3.438c-0.43-1.62-0.31-2.999,0.36-4.144c0.674-1.169,1.639-1.919,2.87-2.244
	c1.588-0.43,3.383-0.142,5.38,0.856c2.021,1,3.885,3.208,5.586,6.635l1.085-0.295l-4.214-11.755l-0.931,0.254
	c0.043,0.638,0,1.152-0.132,1.538c-0.113,0.389-0.448,0.655-1.013,0.804c-0.204,0.055-1.118-0.036-2.743-0.267
	C240.982,128.409,239.66,128.426,238.633,128.702z"/>
<path fill="#FFFFFF" d="M259.209,125.844c1.745,0.029,2.885,0.351,3.432,0.962c0.542,0.59,0.888,1.922,1.037,3.991l1.814,25.937
	c0.154,2.2-0.007,3.595-0.484,4.185c-0.466,0.563-1.548,1.02-3.251,1.372l0.079,1.049l25.214-1.759l1.426-10.004l-1.296,0.091
	c-0.97,3.405-2.174,5.601-3.614,6.577c-1.442,0.955-3.743,1.547-6.9,1.773c-2.921,0.204-4.68,0.218-5.284,0.048
	c-0.59-0.168-0.929-0.83-1.015-1.982l-1.005-14.443l7.177-0.499c1.97-0.135,3.256,0.149,3.854,0.845
	c0.6,0.686,1.147,2.145,1.661,4.381l1.092-0.076l-0.946-13.5l-1.094,0.077c-0.178,2.279-0.509,3.813-1.008,4.593
	c-0.492,0.773-1.737,1.233-3.722,1.373l-7.174,0.506l-0.915-13.013c-0.048-0.76-0.014-1.281,0.12-1.555
	c0.149-0.295,0.562-0.47,1.243-0.513l6.339-0.444c2.729-0.189,4.516,0.065,5.361,0.768s1.555,2.334,2.131,4.888l1.181-0.084
	l-0.744-8.358l-24.782,1.73L259.209,125.844z"/>
<path fill="#FFFFFF" d="M308.05,142.192c-1.853,6.078-1.91,11.595-0.173,16.559c1.881,5.373,5.567,8.9,11.062,10.58
	c3.346,1.022,6.796,0.83,10.357-0.585c2.097-0.835,3.978-1.975,5.657-3.417l-0.585-1.479c-2.083,1.339-3.906,2.265-5.461,2.767
	c-2.717,0.9-5.385,0.94-8.034,0.132c-3.662-1.119-6.167-3.734-7.525-7.864c-1.344-4.137-1.142-9.053,0.605-14.752
	c1.89-6.198,4.516-10.714,7.855-13.565c3.354-2.831,6.834-3.705,10.404-2.615c3.547,1.084,5.859,3.595,6.954,7.52
	c0.566,2.083,0.748,4.65,0.562,7.71l1.176,0.36l3.906-14.498l-1.065-0.324c-0.389,0.652-0.844,1.082-1.382,1.281
	c-0.533,0.204-1.036,0.23-1.517,0.084c-0.23-0.079-1.22-0.753-2.956-2.035c-1.737-1.279-3.532-2.2-5.375-2.764
	c-5.308-1.625-10.299-0.731-14.964,2.688C313.122,131.238,309.95,135.98,308.05,142.192z"/>
<path fill="#FFFFFF" d="M337.535,171.906c-1.018,0.513-2.082,0.521-3.196,0.029l-0.557,0.893l7.861,4.912l0.562-0.893
	c-0.873-0.677-1.416-1.219-1.627-1.62c-0.346-0.66-0.249-1.414,0.273-2.251c0.264-0.422,0.71-0.929,1.354-1.514
	c0.657-0.598,2.52-2.193,5.576-4.797l10.376,6.486l-1.329,5.798c-0.192,0.823-0.413,1.583-0.667,2.279
	c-0.255,0.689-0.456,1.159-0.605,1.399c-0.455,0.725-0.917,1.082-1.372,1.068c-0.441-0.034-1.286-0.351-2.534-0.94l-0.552,0.892
	l10.088,6.304l0.552-0.895c-0.83-0.744-1.301-1.456-1.435-2.145c-0.105-0.688,0.101-2.179,0.614-4.466l7.678-34.272l-0.771-0.48
	l-23.464,19.156C340.838,169.718,338.566,171.407,337.535,171.906z M362.793,154.271l-3.939,16.523l-9.123-5.699L362.793,154.271z"
	/>
<path fill="#FFFFFF" d="M386.41,202.507c-3.514,1.392-6.071,1.857-7.699,1.373c-1.621-0.487-3.848-2.251-6.68-5.291
	c-0.729-0.782-1.219-1.317-1.479-1.627c-0.245-0.286-0.465-0.583-0.662-0.878c-0.336-0.492-0.432-0.933-0.298-1.315
	c0.163-0.381,0.49-0.794,0.96-1.235l20.54-19.149c1.421-1.332,2.544-1.977,3.369-1.958c0.835,0.029,1.882,0.639,3.139,1.814
	l0.797-0.739l-9.022-9.666l-0.792,0.739c1.075,1.373,1.541,2.462,1.416,3.271c-0.124,0.796-0.94,1.9-2.452,3.314l-19.019,17.735
	c-1.613,1.507-2.803,2.258-3.552,2.258c-0.734-0.007-1.775-0.562-3.109-1.661l-0.778,0.72l17.167,18.4l8.96-5.239L386.41,202.507z"
	/>
<path fill="#FFFFFF" d="M400.413,231.594l0.489-1.3c-2.149-0.345-3.873-0.815-5.173-1.401c-2.284-0.999-4.06-2.539-5.303-4.614
	c-1.724-2.87-1.819-6.042-0.298-9.517c1.555-3.477,4.564-6.558,9.041-9.236c4.853-2.928,9.21-4.329,13.045-4.221
	c3.844,0.118,6.608,1.582,8.298,4.389c1.675,2.778,1.707,5.768,0.124,8.955c-0.854,1.689-2.236,3.467-4.146,5.346l0.547,0.921
	l11.028-7.134l-0.504-0.845c-0.634,0.204-1.176,0.213-1.646,0.029c-0.465-0.182-0.806-0.458-1.036-0.835
	c-0.11-0.185-0.355-1.205-0.729-3.055c-0.379-1.85-1.008-3.496-1.876-4.945c-2.501-4.166-6.273-6.5-11.302-7.007
	c-4.795-0.478-9.627,0.753-14.503,3.678c-4.762,2.865-8.034,6.417-9.814,10.667c-1.919,4.6-1.579,9.053,1.008,13.358
	c1.574,2.617,3.931,4.516,7.069,5.684C396.589,231.187,398.479,231.551,400.413,231.594z"/>
<path fill="#FFFFFF" d="M403.571,242.964l24.59-8.463c2.03-0.703,3.427-0.886,4.186-0.55c0.777,0.332,1.535,1.373,2.255,3.139
	l1.027-0.36l-4.506-13.075l-1.022,0.351c0.508,1.835,0.565,3.124,0.148,3.856c-0.393,0.732-1.603,1.449-3.637,2.15l-24.587,8.463
	c-2.141,0.739-3.561,0.929-4.271,0.578c-0.687-0.36-1.421-1.416-2.198-3.153l-0.998,0.338l4.501,13.085l0.999-0.346
	c-0.462-1.848-0.52-3.128-0.207-3.839C400.192,244.427,401.436,243.703,403.571,242.964z"/>
<path fill="#FFFFFF" d="M441.575,259.05c-0.657-4.151-2.903-7.372-6.762-9.68c-4.214-2.503-9.396-3.271-15.559-2.292
	c-5.865,0.929-10.443,3.137-13.717,6.633c-3.215,3.434-4.477,7.316-3.79,11.65c0.638,4.045,2.841,7.232,6.594,9.567
	c4.208,2.603,9.444,3.405,15.702,2.411c6.162-0.977,10.855-3.297,14.07-6.963C441.081,266.993,442.232,263.216,441.575,259.05z
	 M436.392,266.993c-2.49,2.399-6.881,4.096-13.178,5.094c-6.225,0.986-10.904,0.732-14.048-0.761
	c-3.128-1.478-4.904-3.573-5.331-6.294c-0.446-2.781,0.634-5.353,3.221-7.727c2.61-2.368,6.948-4.039,13.024-5.003
	c6.09-0.96,10.73-0.715,13.927,0.734c3.221,1.463,5.049,3.58,5.485,6.344C439.915,262.062,438.883,264.596,436.392,266.993z"/>
<path fill="#FFFFFF" d="M218.625,35.083c0.812-0.593,1.493-0.943,2.042-1.063c0.849-0.183,1.476,0.036,1.869,0.648
	c0.403,0.604,0.732,1.555,1.008,2.827l7.849,36.934c0.507,2.39,0.444,4.031-0.189,4.917c-0.631,0.885-2.222,1.68-4.763,2.383
	l0.254,1.197l17.995-3.82l-0.24-1.121c-2.404,0.403-4.099,0.417-5.092,0.045c-0.984-0.374-1.701-1.583-2.138-3.63l-10.208-48.02
	c-0.05-0.238-0.094-0.384-0.12-0.437c-0.021-0.077-0.083-0.175-0.197-0.288l-0.381,0.08l-10.128,9.946l0.237,1.119
	C217.099,36.209,217.831,35.64,218.625,35.083z"/>
<path fill="#FFFFFF" d="M253.666,42.469c1.166,1.632,3.277,3.784,6.337,6.464c-2.673,2.582-4.523,4.771-5.557,6.558
	c-1.569,2.755-2.236,5.853-1.996,9.299c0.28,4.009,1.766,7.162,4.451,9.457c2.716,2.263,5.833,3.268,9.371,3.023
	c3.947-0.281,7-1.829,9.159-4.65c2.181-2.822,3.131-6.184,2.857-10.087c-0.24-3.446-1.252-6.374-3.033-8.778
	c-1.766-2.443-4.607-5.243-8.533-8.401c2.582-2.062,4.43-3.847,5.543-5.373c1.929-2.668,2.779-5.586,2.561-8.761
	c-0.226-3.122-1.442-5.788-3.674-8.005c-2.219-2.215-5.078-3.201-8.573-2.954c-3.792,0.269-6.803,1.73-9.011,4.389
	c-2.188,2.661-3.16,5.783-2.913,9.363C250.88,37.159,251.878,39.972,253.666,42.469z M270.83,58.311
	c1.497,1.723,2.342,4.06,2.553,7.014c0.175,2.604-0.309,4.818-1.461,6.642c-1.162,1.829-2.99,2.827-5.481,3.004
	c-2.363,0.161-4.398-0.804-6.092-2.894c-1.675-2.088-2.64-4.986-2.898-8.701c-0.149-2.174,0.12-4.454,0.801-6.843
	c0.684-2.393,1.9-4.384,3.667-5.982C266.384,53.978,269.359,56.56,270.83,58.311z M256.987,25.313
	c1.188-1.66,2.776-2.567,4.775-2.702c2.582-0.183,4.566,0.59,5.951,2.32c1.399,1.704,2.195,3.842,2.378,6.417
	c0.204,2.957-0.288,5.521-1.49,7.703c-0.696,1.274-1.999,2.877-3.914,4.813c-2.63-1.751-4.79-3.659-6.483-5.721
	c-1.668-2.09-2.597-4.41-2.774-6.956C255.276,28.936,255.79,26.98,256.987,25.313z"/>
<path fill="#FFFFFF" d="M297.6,69.911c-1.795,1.78-4.099,3.215-6.896,4.307c-1.561,0.604-3.499,1.13-5.803,1.581l0.183,1.653
	c3.643-0.252,6.694-0.809,9.152-1.653c4.382-1.497,8.124-4.053,11.21-7.654c2.653-3.129,4.785-6.76,6.388-10.901
	c1.603-4.144,2.591-8.273,2.946-12.389c0.519-5.853-0.321-11.264-2.505-16.229c-2.184-4.988-5.658-7.697-10.424-8.11
	c-4.007-0.353-7.463,1.229-10.366,4.742c-2.884,3.508-4.578,8.151-5.082,13.92c-0.398,4.523,0.331,8.511,2.188,11.98
	c1.886,3.439,4.665,5.318,8.351,5.642c0.927,0.076,1.977,0.007,3.134-0.219c2.212-0.379,4.189-1.26,5.927-2.63l1.225-0.957
	c-0.538,2.243-1.661,4.995-3.341,8.256C302.225,64.495,300.128,67.379,297.6,69.911z M304.582,52.185
	c-1.656,0.893-3.216,1.272-4.685,1.147c-3.21-0.283-5.273-2.155-6.22-5.623c-0.922-3.462-1.209-7.167-0.863-11.129
	c0.418-4.789,1.387-8.336,2.894-10.63c1.535-2.292,3.364-3.347,5.49-3.165c2.918,0.261,4.986,2.21,6.2,5.867
	c1.2,3.652,1.56,8.295,1.065,13.929c-0.091,1.084-0.245,2.498-0.471,4.257c-0.221,1.723-0.378,2.721-0.484,2.982
	C307.227,50.51,306.256,51.297,304.582,52.185z"/>
<path fill="#FFFFFF" d="M329.369,82.532c3.974,0.984,7.678-0.149,11.11-3.412c3.454-3.256,5.792-7.295,6.991-12.123
	c1.335-5.379,1.233-9.804-0.321-13.279c-1.56-3.47-4.012-5.622-7.366-6.459c-1.709-0.42-3.519-0.42-5.409,0
	c-1.07,0.24-2.385,0.691-3.94,1.368c1.225-2.745,2.87-5.418,4.953-8.007c2.083-2.589,4.127-4.643,6.143-6.162
	c1.958-1.497,4.021-2.524,6.182-3.081c2.179-0.578,4.665-0.837,7.458-0.787l0.168-1.346c-6.585-1.637-13.212-0.322-19.883,3.957
	c-7.573,5.197-12.516,12.456-14.839,21.764c-1.805,7.225-1.728,13.394,0.23,18.5C322.813,78.58,325.663,81.604,329.369,82.532z
	 M325.923,59.148c0.831-3.326,1.737-5.62,2.73-6.887c1.686-2.16,4.157-2.829,7.43-2.018c3.537,0.886,5.485,3.784,5.831,8.687
	c0.211,2.939-0.116,6.162-0.999,9.666c-0.893,3.587-2.245,6.584-4.05,8.991c-1.81,2.385-3.969,3.256-6.47,2.63
	c-3.167-0.788-4.977-3.427-5.428-7.907C324.531,67.83,324.857,63.446,325.923,59.148z"/>
<path fill="#FFFFFF" d="M218.295,353.525c10.398,25.095,29.531,51.686,64.705,67.053c35.173-15.367,54.308-41.958,64.705-67.053
	L283,268.908L218.295,353.525z"/>
<path fill="#FFFFFF" d="M359.987,200.396H283h-76.987v90.785c0,0-0.149,3.887,0.288,10.376L283,201.24l76.699,100.316
	c0.438-6.489,0.288-10.376,0.288-10.376V200.396z"/>
</svg>
